<?xml version="1.0" encoding="UTF-8" standalone="no"?>
<!DOCTYPE svg PUBLIC "-//W3C//DTD SVG 1.1//EN" "http://www.w3.org/Graphics/SVG/1.1/DTD/svg11.dtd">
<svg width="100%" height="100%" viewBox="0 0 148 42" version="1.1" xmlns="http://www.w3.org/2000/svg" xmlns:xlink="http://www.w3.org/1999/xlink" xml:space="preserve" xmlns:serif="http://www.serif.com/" style="fill-rule:evenodd;clip-rule:evenodd;stroke-linejoin:round;stroke-miterlimit:1.41421;">
    <g transform="matrix(1,0,0,1,-2.02208,-0.403975)">
        <g transform="matrix(1.13346,0,0,1.12883,-151.883,-141.233)">
            <g transform="matrix(1,0,0,1,70,27)">
                <path d="M87.96,133.992C85.816,134.184 82.744,134.28 78.744,134.28C74.744,134.28 72.016,134.224 70.56,134.112C69.104,134 68.008,133.736 67.272,133.32C66.536,132.904 66.136,132.248 66.072,131.352C65.88,127.896 65.784,123.952 65.784,119.52C65.784,115.088 65.848,110.392 65.976,105.432C66.04,102.36 67.464,100.728 70.248,100.536C72.2,100.408 75.192,100.344 79.224,100.344C83.256,100.344 86.416,100.4 88.704,100.512C90.992,100.624 93.2,101.152 95.328,102.096C97.456,103.04 99.16,104.264 100.44,105.768C103.096,108.872 104.424,112.472 104.424,116.568C104.424,120.888 103.032,124.744 100.248,128.136C98.904,129.768 97.168,131.112 95.04,132.168C92.912,133.224 90.552,133.832 87.96,133.992ZM85.8,110.856L85.8,122.472C85.8,122.728 85.896,122.968 86.088,123.192C86.28,123.416 86.536,123.528 86.856,123.528C88.904,123.528 90.48,122.824 91.584,121.416C92.688,120.008 93.24,118.344 93.24,116.424C93.24,114.504 92.736,112.832 91.728,111.408C90.72,109.984 89.368,109.272 87.672,109.272C87.256,109.272 86.936,109.288 86.712,109.32C86.104,109.48 85.8,109.992 85.8,110.856Z" style="fill:rgb(255,231,68);fill-rule:nonzero;"/>
                <path d="M112.104,109.8L121.464,109.8C122.552,109.8 123.28,110.04 123.648,110.52C124.016,111 124.256,112.064 124.368,113.712C124.48,115.36 124.536,118.368 124.536,122.736C124.536,127.104 124.44,130.184 124.248,131.976C124.152,132.52 123.88,133 123.432,133.416C122.984,133.832 122.192,134.08 121.056,134.16C119.92,134.24 118.568,134.28 117,134.28C115.432,134.28 114.008,134.24 112.728,134.16C111.448,134.08 110.584,133.832 110.136,133.416C109.688,133 109.432,132.52 109.368,131.976C109.144,129.896 109.032,126.704 109.032,122.4C109.032,118.096 109.096,115.16 109.224,113.592C109.352,112.024 109.592,111 109.944,110.52C110.296,110.04 111.016,109.8 112.104,109.8ZM117.288,98.472C119.4,98.472 120.992,98.896 122.064,99.744C123.136,100.592 123.672,101.752 123.672,103.224C123.672,106.68 121.368,108.408 116.76,108.408C114.904,108.408 113.32,108.008 112.008,107.208C110.696,106.408 110.04,105.208 110.04,103.608C110.04,100.184 112.456,98.472 117.288,98.472Z" style="fill:rgb(255,231,68);fill-rule:nonzero;"/>
                <path d="M148.44,126.792C150.328,126.792 151.272,125.232 151.272,122.112C151.272,118.992 150.328,117.432 148.44,117.432C147.704,117.432 147.04,117.68 146.448,118.176C145.856,118.672 145.56,119.368 145.56,120.264L145.56,123.96C145.56,124.856 145.856,125.552 146.448,126.048C147.04,126.544 147.704,126.792 148.44,126.792ZM130.392,131.832L130.296,116.136C130.296,111.336 130.344,106.664 130.44,102.12C130.472,101.064 130.672,100.28 131.04,99.768C131.408,99.256 132.12,99 133.176,99L142.392,99C143.448,99 144.16,99.248 144.528,99.744C144.896,100.24 145.136,101.32 145.248,102.984C145.36,104.648 145.416,107.592 145.416,111.816C145.416,112.008 145.464,112.16 145.56,112.272C145.656,112.384 145.8,112.36 145.992,112.2C148.232,110.088 150.944,109.032 154.128,109.032C157.312,109.032 159.904,110.048 161.904,112.08C163.904,114.112 164.904,117.408 164.904,121.968C164.904,126.528 163.896,129.792 161.88,131.76C159.864,133.728 157.224,134.712 153.96,134.712C149.16,134.712 146.12,133.608 144.84,131.4C144.808,132.232 144.504,132.872 143.928,133.32C143.352,133.768 142.712,134.024 142.008,134.088C141.304,134.152 140.024,134.184 138.168,134.184L133.08,134.088C132.472,134.088 131.872,133.872 131.28,133.44C130.688,133.008 130.392,132.472 130.392,131.832Z" style="fill:rgb(255,231,68);fill-rule:nonzero;"/>
                <path d="M179.832,127.8C179.832,126.904 179.456,126.2 178.704,125.688C177.952,125.176 177.04,124.784 175.968,124.512C174.896,124.24 173.816,123.92 172.728,123.552C171.64,123.184 170.72,122.544 169.968,121.632C169.216,120.72 168.84,119.512 168.84,118.008C168.84,112.056 173.464,109.08 182.712,109.08C186.68,109.08 189.864,109.752 192.264,111.096C193.032,111.512 193.576,111.904 193.896,112.272C194.216,112.64 194.376,113.288 194.376,114.216C194.376,115.144 194.192,115.84 193.824,116.304C193.456,116.768 193.088,117 192.72,117C192.352,117 191.552,116.64 190.32,115.92C189.088,115.2 187.816,114.824 186.504,114.792C185.448,114.792 184.92,115.32 184.92,116.376C184.92,117.08 185.288,117.64 186.024,118.056C186.76,118.472 187.656,118.832 188.712,119.136C189.768,119.44 190.824,119.808 191.88,120.24C192.936,120.672 193.832,121.392 194.568,122.4C195.304,123.408 195.672,124.68 195.672,126.216C195.672,132.168 191.048,135.144 181.8,135.144C177.288,135.144 173.608,134.488 170.76,133.176C169.896,132.824 169.272,132.464 168.888,132.096C168.504,131.728 168.312,131.056 168.312,130.08C168.312,129.104 168.512,128.408 168.912,127.992C169.312,127.576 169.648,127.368 169.92,127.368C170.192,127.368 171.112,127.72 172.68,128.424C174.248,129.128 175.832,129.48 177.432,129.48C179.032,129.48 179.832,128.92 179.832,127.8Z" style="fill:rgb(255,231,68);fill-rule:nonzero;"/>
            </g>
            <g transform="matrix(1,0,0,1,31.68,-99.12)">
                <path d="M125.8,257.16C124.013,257.32 121.453,257.4 118.12,257.4C114.787,257.4 112.513,257.353 111.3,257.26C110.087,257.167 109.173,256.947 108.56,256.6C107.947,256.253 107.613,255.707 107.56,254.96C107.4,252.08 107.32,248.793 107.32,245.1C107.32,241.407 107.373,237.493 107.48,233.36C107.533,230.8 108.72,229.44 111.04,229.28C112.667,229.173 115.16,229.12 118.52,229.12C121.88,229.12 124.513,229.167 126.42,229.26C128.327,229.353 130.167,229.793 131.94,230.58C133.713,231.367 135.133,232.387 136.2,233.64C138.413,236.227 139.52,239.227 139.52,242.64C139.52,246.24 138.36,249.453 136.04,252.28C134.92,253.64 133.473,254.76 131.7,255.64C129.927,256.52 127.96,257.027 125.8,257.16ZM121,234.88L121,250.56C121,250.773 121.08,250.973 121.24,251.16C121.4,251.347 121.613,251.44 121.88,251.44C123.587,251.44 127.956,251.005 130.32,249.12C132.747,247.185 132.7,244.56 132.7,242.96C132.7,241.36 131.992,238.329 130.32,236.12C128.457,233.659 123.973,233.56 122.56,233.56C122.213,233.56 121.947,233.573 121.76,233.6C121.253,233.733 121,234.16 121,234.88Z" style="fill:rgb(55,124,153);fill-rule:nonzero;"/>
            </g>
            <g transform="matrix(1,0,0,1,54,-70)">
                <path d="M128.96,209L136.76,209C137.667,209 138.273,209.2 138.58,209.6C138.887,210 139.087,210.887 139.18,212.26C139.273,213.633 139.32,216.14 139.32,219.78C139.32,223.42 139.24,225.987 139.08,227.48C139,227.933 138.773,228.333 138.4,228.68C138.027,229.027 137.367,229.233 136.42,229.3C135.473,229.367 134.347,229.4 133.04,229.4C131.733,229.4 130.547,229.367 129.48,229.3C128.413,229.233 127.693,229.027 127.32,228.68C126.947,228.333 126.733,227.933 126.68,227.48C126.493,225.747 126.4,223.087 126.4,219.5C126.4,215.913 126.453,213.467 126.56,212.16C126.667,210.853 126.867,210 127.16,209.6C127.453,209.2 128.053,209 128.96,209ZM133.28,196.4C135.04,196.4 136.367,196.753 137.26,197.46C138.153,198.167 138.6,199.133 138.6,200.36C138.6,203.24 136.68,204.68 132.84,204.68C131.293,204.68 129.973,204.347 128.88,203.68C127.787,203.013 127.24,202.013 127.24,200.68C127.24,197.827 129.253,196.4 133.28,196.4Z" style="fill:rgb(55,124,153);fill-rule:nonzero;"/>
            </g>
            <g transform="matrix(1,0,0,1,51,-69)">
                <path d="M169,224C170.683,223.417 171.946,221.881 172,218C172.048,214.604 170.511,212.438 169,212C167.028,211.429 165.221,212.11 164,214C162.749,215.936 162.766,219.772 164,222C164.701,223.266 166.234,224.958 169,224ZM150.48,225.36L150.4,212.28C150.4,208.28 150.44,204.387 150.52,200.6C150.547,199.72 150.713,199.067 151.02,198.64C151.327,198.213 151.92,198 152.8,198L160.48,198C161.36,198 161.953,198.207 162.26,198.62C162.567,199.033 162.767,199.933 162.86,201.32C162.953,202.707 162.932,205.798 163.114,207.916C163.26,209.605 163.84,211.133 164,211C165.867,209.24 170.607,206.36 173.26,206.36C175.913,206.36 178.073,207.207 179.74,208.9C181.407,210.593 182.24,213.34 182.24,217.14C182.24,220.94 181.4,223.66 179.72,225.3C178.04,226.94 175.72,228.4 173,228.4C169,228.4 164.067,226.84 163,225C162.973,225.693 162.24,226.227 161.76,226.6C161.28,226.973 160.747,227.187 160.16,227.24C159.573,227.293 158.507,227.32 156.96,227.32L152.72,227.24C152.213,227.24 151.713,227.06 151.22,226.7C150.727,226.34 150.48,225.893 150.48,225.36Z" style="fill:rgb(55,124,153);fill-rule:nonzero;"/>
            </g>
            <g transform="matrix(1,0,0,1,57,-64)">
                <path d="M194.2,220C194.619,219.382 194.82,218.071 194.26,217.24C193.836,216.611 192.873,215.487 191.98,215.26C191.087,215.033 190.187,214.767 189.28,214.46C188.373,214.153 185.789,213.423 184.98,212.86C183.651,211.935 183,210.253 183,209C183,204.04 187.893,201.4 195.6,201.4C198.907,201.4 198.947,201.473 201,202C202.946,202.499 202.871,202.54 204,203C205.513,203.617 206.32,203.907 206.32,204.68C206.32,205.453 205.455,206.139 205,206C204.104,205.727 203.122,205.394 202,205C200.972,204.639 199.333,204.267 197.76,205.16C196.995,205.594 196.496,206.065 196.44,207.48C196.417,208.066 197.13,209.206 198.36,209.88C199.197,210.339 199.72,210.527 200.6,210.78C201.48,211.033 202.36,211.34 203.24,211.7C204.12,212.06 204.867,212.66 205.48,213.5C206.093,214.34 206.4,215.4 206.4,216.68C206.4,221.64 202.547,225.12 194.84,225.12C191.08,225.12 188.631,224.521 187,224C185.52,223.528 183.081,222.73 182.6,221.9C182.164,221.148 182.021,220.099 183,220C185.22,219.775 185.64,220.887 187.24,221.52C188.572,222.047 189.667,222 191,222C192.333,222 193.46,221.09 194.2,220Z" style="fill:rgb(55,124,153);fill-rule:nonzero;"/>
            </g>
        </g>
    </g>
</svg>
