<?xml version="1.0" encoding="UTF-8" standalone="no"?><!DOCTYPE svg PUBLIC "-//W3C//DTD SVG 1.1//EN" "http://www.w3.org/Graphics/SVG/1.1/DTD/svg11.dtd"><svg width="100%" height="100%" viewBox="0 0 162 77" version="1.1" xmlns="http://www.w3.org/2000/svg" xmlns:xlink="http://www.w3.org/1999/xlink" xml:space="preserve" xmlns:serif="http://www.serif.com/" style="fill-rule:evenodd;clip-rule:evenodd;stroke-linejoin:round;stroke-miterlimit:1.41421;"><g><g><text x="-0.133px" y="40.919px" style="font-family:'Chango-Regular', 'Chango';font-size:54.184px;fill:#ffe744;">D<tspan x="48.777px 72.879px 117.057px " y="40.919px 40.919px 40.919px ">ibs</tspan></text><path d="M27.614,37.478c-2.026,0.181 -4.927,0.271 -8.705,0.271c-3.779,0 -6.355,-0.053 -7.731,-0.158c-1.375,-0.105 -2.41,-0.354 -3.105,-0.745c-0.695,-0.391 -1.073,-1.008 -1.134,-1.851c-0.181,-3.251 -0.272,-6.961 -0.272,-11.131c0,-4.169 0.061,-8.586 0.182,-13.252c0.06,-2.89 1.405,-4.425 4.035,-4.606c1.843,-0.12 4.67,-0.18 8.478,-0.18c3.808,0 6.793,0.052 8.954,0.158c2.161,0.105 4.247,0.602 6.257,1.49c2.01,0.888 3.619,2.039 4.828,3.454c2.509,2.92 3.764,6.306 3.764,10.159c0,4.064 -1.315,7.692 -3.945,10.882c-1.269,1.536 -2.909,2.8 -4.919,3.793c-2.01,0.994 -4.239,1.566 -6.687,1.716Zm-5.441,-25.15l0,17.7c0,0.241 0.091,0.466 0.272,0.677c0.181,0.211 0.423,0.316 0.725,0.316c1.935,0 6.888,-0.491 9.567,-2.619c2.75,-2.184 2.697,-5.147 2.697,-6.953c0,-1.806 -0.802,-5.228 -2.697,-7.722c-2.112,-2.778 -7.194,-2.889 -8.796,-2.889c-0.393,0 -0.695,0.015 -0.907,0.045c-0.574,0.15 -0.861,0.632 -0.861,1.445Z" style="fill:#377c99;fill-rule:nonzero;"/><path d="M56.494,15.985l8.841,0c1.028,0 1.715,0.226 2.063,0.677c0.347,0.452 0.574,1.453 0.68,3.003c0.106,1.55 0.159,4.38 0.159,8.489c0,4.109 -0.091,7.006 -0.272,8.692c-0.091,0.512 -0.348,0.963 -0.771,1.355c-0.423,0.391 -1.171,0.624 -2.244,0.699c-1.073,0.076 -2.35,0.113 -3.832,0.113c-1.481,0 -2.826,-0.037 -4.035,-0.113c-1.209,-0.075 -2.025,-0.308 -2.448,-0.699c-0.423,-0.392 -0.665,-0.843 -0.725,-1.355c-0.212,-1.957 -0.318,-4.959 -0.318,-9.008c0,-4.049 0.061,-6.811 0.182,-8.286c0.121,-1.475 0.347,-2.438 0.68,-2.89c0.332,-0.451 1.012,-0.677 2.04,-0.677Zm4.896,-14.223c1.995,0 3.499,0.399 4.512,1.196c1.012,0.798 1.518,1.889 1.518,3.274c0,3.251 -2.176,4.877 -6.528,4.877c-1.753,0 -3.249,-0.377 -4.489,-1.129c-1.239,-0.753 -1.859,-1.882 -1.859,-3.387c0,-3.221 2.282,-4.831 6.846,-4.831Z" style="fill:#377c99;fill-rule:nonzero;"/><path d="M98.477,34.046c1.908,-0.657 3.339,-2.391 3.401,-6.773c0.054,-3.833 -1.688,-6.279 -3.401,-6.773c-2.235,-0.644 -4.283,0.124 -5.667,2.258c-1.418,2.185 -1.399,6.516 0,9.031c0.795,1.429 2.532,3.339 5.667,2.257Zm-20.991,1.536l-0.091,-14.765c0,-4.516 0.045,-8.911 0.136,-13.185c0.03,-0.994 0.219,-1.731 0.567,-2.213c0.347,-0.481 1.02,-0.722 2.017,-0.722l8.705,0c0.998,0 1.67,0.233 2.018,0.7c0.347,0.466 0.574,1.482 0.68,3.048c0.106,1.565 0.081,5.054 0.288,7.445c0.165,1.907 0.823,3.632 1.004,3.482c2.116,-1.987 7.488,-5.238 10.496,-5.238c3.007,0 5.455,0.956 7.344,2.867c1.89,1.912 2.834,5.012 2.834,9.302c0,4.289 -0.952,7.36 -2.856,9.211c-1.904,1.851 -4.534,3.499 -7.617,3.499c-4.534,0 -10.126,-1.761 -11.335,-3.838c-0.03,0.783 -0.861,1.385 -1.405,1.806c-0.544,0.422 -1.149,0.663 -1.814,0.723c-0.665,0.06 -1.874,0.09 -3.627,0.09l-4.806,-0.09c-0.574,0 -1.141,-0.203 -1.7,-0.61c-0.559,-0.406 -0.838,-0.91 -0.838,-1.512Z" style="fill:#377c99;fill-rule:nonzero;"/><path d="M133.841,35.175c0.475,-0.697 0.702,-2.178 0.068,-3.115c-0.48,-0.71 -1.572,-1.979 -2.584,-2.235c-1.013,-0.256 -2.033,-0.557 -3.061,-0.903c-1.027,-0.347 -3.957,-1.171 -4.874,-1.807c-1.506,-1.044 -2.244,-2.942 -2.244,-4.357c0,-5.599 5.547,-8.579 14.282,-8.579c3.748,0 3.793,0.083 6.12,0.677c2.206,0.564 2.121,0.61 3.401,1.129c1.715,0.696 2.629,1.024 2.629,1.897c0,0.873 -0.979,1.646 -1.496,1.49c-1.015,-0.309 -2.128,-0.684 -3.4,-1.129c-1.166,-0.408 -3.023,-0.827 -4.806,0.18c-0.867,0.491 -1.433,1.022 -1.496,2.619c-0.026,0.662 0.782,1.948 2.176,2.71c0.949,0.517 1.542,0.729 2.539,1.015c0.998,0.286 1.995,0.633 2.992,1.039c0.998,0.406 1.844,1.084 2.539,2.032c0.696,0.948 1.043,2.145 1.043,3.59c0,5.599 -4.367,9.527 -13.103,9.527c-4.261,0 -7.037,-0.677 -8.886,-1.264c-1.677,-0.533 -4.441,-1.434 -4.987,-2.371c-0.495,-0.849 -0.657,-2.033 0.453,-2.145c2.516,-0.253 2.992,1.001 4.806,1.716c1.51,0.595 2.751,0.542 4.262,0.542c1.511,0 2.788,-1.027 3.627,-2.258Z" style="fill:#377c99;fill-rule:nonzero;"/></g><text x="5px" y="57.125px" style="font-family:'Lato-Italic', 'Lato', sans-serif;font-style:italic;font-size:15px;fill:#fff;">the r<tspan x="32.863px 39.778px " y="57.125px 57.125px ">es</tspan>erv<tspan x="64.738px 72.313px " y="57.125px 57.125px ">at</tspan>ion app for</text><text x="5px" y="72.229px" style="font-family:'Lato-Italic', 'Lato', sans-serif;font-style:italic;font-size:15px;fill:#fff;">family shar<tspan x="72.44px 79.355px " y="72.229px 72.229px ">ed</tspan> pr<tspan x="102.875px 110.413px " y="72.229px 72.229px ">op</tspan>erties</text></g></svg>