<?xml version="1.0" encoding="UTF-8" standalone="no"?><!DOCTYPE svg PUBLIC "-//W3C//DTD SVG 1.1//EN" "http://www.w3.org/Graphics/SVG/1.1/DTD/svg11.dtd"><svg width="100%" height="100%" viewBox="0 0 151 42" version="1.1" xmlns="http://www.w3.org/2000/svg" xmlns:xlink="http://www.w3.org/1999/xlink" xml:space="preserve" xmlns:serif="http://www.serif.com/" style="fill-rule:evenodd;clip-rule:evenodd;stroke-linejoin:round;stroke-miterlimit:1.41421;"><text x="-1.133px" y="40.409px" style="font-family:'Chango-Regular', 'Chango';font-size:54.184px;fill:#ffe744;">D<tspan x="47.777px 71.879px 116.057px " y="40.409px 40.409px 40.409px ">ibs</tspan></text><path d="M26.614,36.968c-2.026,0.18 -4.927,0.271 -8.705,0.271c-3.779,0 -6.355,-0.053 -7.731,-0.158c-1.375,-0.106 -2.41,-0.354 -3.105,-0.745c-0.695,-0.392 -1.073,-1.009 -1.134,-1.852c-0.181,-3.251 -0.272,-6.961 -0.272,-11.13c0,-4.169 0.061,-8.587 0.182,-13.252c0.06,-2.89 1.405,-4.425 4.035,-4.606c1.843,-0.12 4.67,-0.181 8.478,-0.181c3.808,0 6.793,0.053 8.954,0.158c2.161,0.106 4.247,0.602 6.257,1.49c2.01,0.888 3.619,2.04 4.828,3.455c2.509,2.92 3.764,6.306 3.764,10.159c0,4.064 -1.315,7.691 -3.945,10.882c-1.269,1.535 -2.909,2.8 -4.919,3.793c-2.01,0.993 -4.239,1.565 -6.687,1.716Zm-5.441,-25.151l0,17.701c0,0.24 0.091,0.466 0.272,0.677c0.181,0.211 0.423,0.316 0.725,0.316c1.935,0 7.151,0.617 9.83,-1.511c2.75,-2.185 4.112,-6.197 4,-8c-0.253,-4.083 -1.141,-5.445 -3,-7.331c-3.446,-3.497 -8.457,-3.342 -10.059,-3.342c-0.393,0 -0.695,0.015 -0.907,0.046c-0.574,0.15 -0.861,0.632 -0.861,1.444Z" style="fill:#377c99;fill-rule:nonzero;"/><path d="M56.494,15.475l6.841,0c1.028,0 1.715,0.226 2.063,0.677c0.347,0.452 0.574,1.453 0.68,3.003c0.106,1.55 0.159,4.38 0.159,8.489c0,4.109 -0.091,7.006 -0.272,8.692c-0.091,0.511 -0.348,0.963 -0.771,1.354c-0.423,0.392 -1.171,0.625 -2.244,0.7c-1.073,0.075 -1.35,0.113 -2.832,0.113c-1.481,0 -1.826,-0.038 -3.035,-0.113c-1.209,-0.075 -2.025,-0.308 -2.448,-0.7c-0.423,-0.391 -0.665,-0.843 -0.725,-1.354c-0.212,-1.957 -0.318,-4.96 -0.318,-9.008c0,-4.049 0.061,-6.811 0.182,-8.286c0.121,-1.475 0.347,-2.438 0.68,-2.89c0.332,-0.451 1.012,-0.677 2.04,-0.677Zm3.896,-13.223c1.995,0 2.499,0.398 3.512,1.196c1.012,0.798 1.518,0.889 1.518,2.274c0,3.251 -1.176,3.876 -5.528,3.876c-1.753,0 -2.249,-0.376 -3.489,-1.129c-1.239,-0.752 -1.859,-0.881 -1.859,-2.386c0,-3.221 1.282,-3.831 5.846,-3.831Z" style="fill:#377c99;fill-rule:nonzero;"/><path d="M98.477,33.536c1.908,-0.658 3.339,-2.392 3.401,-6.773c0.054,-3.834 -1.688,-6.279 -3.401,-6.773c-2.235,-0.644 -6.283,0.124 -7.667,2.258c-1.418,2.185 -1.399,6.515 0,9.031c0.795,1.429 4.532,3.338 7.667,2.257Zm-20.991,1.535l-0.091,-14.765c0,-4.515 0.045,-8.91 0.136,-13.185c0.03,-0.993 0.219,-1.73 0.567,-2.212c0.347,-0.482 1.02,-0.722 2.017,-0.722l6.705,0c0.998,0 1.67,0.233 2.018,0.699c0.347,0.467 0.574,1.483 0.68,3.048c0.106,1.566 0.081,5.055 0.288,7.446c0.165,1.907 0.79,3.581 1.004,3.481c4.371,-2.049 6.104,-3.952 10.496,-4.237c3.001,-0.195 4.455,0.955 6.344,2.867c1.89,1.911 3.834,4.012 3.834,8.301c0,4.29 -0.952,7.36 -2.856,9.212c-1.904,1.851 -3.534,3.499 -6.617,3.499c-4.534,0 -10.802,-2.426 -12.011,-4.503c-0.03,0.783 -0.456,1.579 -1,2c-0.544,0.421 -1.878,1.133 -2.543,1.194c-0.665,0.06 -0.874,0.09 -2.627,0.09l-3.806,-0.09c-0.574,0 -1.141,-0.204 -1.7,-0.61c-0.559,-0.406 -0.838,-0.911 -0.838,-1.513Z" style="fill:#377c99;fill-rule:nonzero;"/><path d="M134,36c0.63,-0.562 1.346,-2.922 1,-4c-0.691,-2.154 -2.161,-2.377 -3,-3c-1.09,-0.809 -2.998,-1.587 -4,-2c-1.623,-0.669 -3.084,-0.254 -5.088,-2c-1.382,-1.204 -1.442,-4.066 -0.27,-6c1.423,-2.347 3.936,-2.82 7.358,-4c1.772,-0.611 5.125,-0.935 7,-1c1.253,-0.044 4.669,0.955 5.949,1.475c1.715,0.696 2.051,0.652 2.051,1.525c0,0.873 -0.401,1.018 -0.918,0.861c-1.015,-0.308 -1.951,-0.828 -3.4,-1.128c-1.895,-0.393 -3.805,-0.291 -4.682,0.267c-0.81,0.515 -1.738,1.384 -2,3c-0.261,1.613 -0.001,1.766 1,3c0.702,0.866 3.003,1.714 4,2c0.997,0.286 2.003,0.594 3,1c0.997,0.406 3.737,1.917 4,4c0.147,1.167 0.698,4.245 -1,6c-1.715,1.773 -2.698,3.445 -11.434,3.445c-4.261,0 -6.454,-0.301 -8.566,-0.942c-2.469,-0.749 -3.761,-0.756 -4.307,-1.693c-0.495,-0.849 0.239,-2.132 1.307,-1.81c1.559,0.471 2.091,0.963 3.952,1.381c1.583,0.356 2.753,0.633 4.262,0.542c1.039,-0.064 2.321,0.384 3.786,-0.923Z" style="fill:#377c99;fill-rule:nonzero;"/></svg>