<?xml version="1.0" encoding="UTF-8" standalone="no"?>
<!DOCTYPE svg PUBLIC "-//W3C//DTD SVG 1.1//EN" "http://www.w3.org/Graphics/SVG/1.1/DTD/svg11.dtd">
<svg width="100%" height="100%" viewBox="0 0 148 71" version="1.1" xmlns="http://www.w3.org/2000/svg" xmlns:xlink="http://www.w3.org/1999/xlink" xml:space="preserve" xmlns:serif="http://www.serif.com/" style="fill-rule:evenodd;clip-rule:evenodd;stroke-linejoin:round;stroke-miterlimit:1.41421;">
    <g transform="matrix(1,0,0,1,-1.02208,-0.53281)">
        <g transform="matrix(1,0,0,1,-12,-101)">
            <g transform="matrix(1.13346,0,0,1.12883,-140.883,-40.1043)">
                <g transform="matrix(1,0,0,1,70,27)">
                    <g>
                        <path d="M87.96,133.992C85.816,134.184 82.744,134.28 78.744,134.28C74.744,134.28 72.016,134.224 70.56,134.112C69.104,134 68.008,133.736 67.272,133.32C66.536,132.904 66.136,132.248 66.072,131.352C65.88,127.896 65.784,123.952 65.784,119.52C65.784,115.088 65.848,110.392 65.976,105.432C66.04,102.36 67.464,100.728 70.248,100.536C72.2,100.408 75.192,100.344 79.224,100.344C83.256,100.344 86.416,100.4 88.704,100.512C90.992,100.624 93.2,101.152 95.328,102.096C97.456,103.04 99.16,104.264 100.44,105.768C103.096,108.872 104.424,112.472 104.424,116.568C104.424,120.888 103.032,124.744 100.248,128.136C98.904,129.768 97.168,131.112 95.04,132.168C92.912,133.224 90.552,133.832 87.96,133.992ZM85.8,110.856L85.8,122.472C85.8,122.728 85.896,122.968 86.088,123.192C86.28,123.416 86.536,123.528 86.856,123.528C88.904,123.528 90.48,122.824 91.584,121.416C92.688,120.008 93.24,118.344 93.24,116.424C93.24,114.504 92.736,112.832 91.728,111.408C90.72,109.984 89.368,109.272 87.672,109.272C87.256,109.272 86.936,109.288 86.712,109.32C86.104,109.48 85.8,109.992 85.8,110.856Z" style="fill:rgb(255,231,68);fill-rule:nonzero;"/>
                        <path d="M112.104,109.8L121.464,109.8C122.552,109.8 123.28,110.04 123.648,110.52C124.016,111 124.256,112.064 124.368,113.712C124.48,115.36 124.536,118.368 124.536,122.736C124.536,127.104 124.44,130.184 124.248,131.976C124.152,132.52 123.88,133 123.432,133.416C122.984,133.832 122.192,134.08 121.056,134.16C119.92,134.24 118.568,134.28 117,134.28C115.432,134.28 114.008,134.24 112.728,134.16C111.448,134.08 110.584,133.832 110.136,133.416C109.688,133 109.432,132.52 109.368,131.976C109.144,129.896 109.032,126.704 109.032,122.4C109.032,118.096 109.096,115.16 109.224,113.592C109.352,112.024 109.592,111 109.944,110.52C110.296,110.04 111.016,109.8 112.104,109.8ZM117.288,98.472C119.4,98.472 120.992,98.896 122.064,99.744C123.136,100.592 123.672,101.752 123.672,103.224C123.672,106.68 121.368,108.408 116.76,108.408C114.904,108.408 113.32,108.008 112.008,107.208C110.696,106.408 110.04,105.208 110.04,103.608C110.04,100.184 112.456,98.472 117.288,98.472Z" style="fill:rgb(255,231,68);fill-rule:nonzero;"/>
                        <path d="M148.44,126.792C150.328,126.792 151.272,125.232 151.272,122.112C151.272,118.992 150.328,117.432 148.44,117.432C147.704,117.432 147.04,117.68 146.448,118.176C145.856,118.672 145.56,119.368 145.56,120.264L145.56,123.96C145.56,124.856 145.856,125.552 146.448,126.048C147.04,126.544 147.704,126.792 148.44,126.792ZM130.392,131.832L130.296,116.136C130.296,111.336 130.344,106.664 130.44,102.12C130.472,101.064 130.672,100.28 131.04,99.768C131.408,99.256 132.12,99 133.176,99L142.392,99C143.448,99 144.16,99.248 144.528,99.744C144.896,100.24 145.136,101.32 145.248,102.984C145.36,104.648 145.416,107.592 145.416,111.816C145.416,112.008 145.464,112.16 145.56,112.272C145.656,112.384 145.8,112.36 145.992,112.2C148.232,110.088 150.944,109.032 154.128,109.032C157.312,109.032 159.904,110.048 161.904,112.08C163.904,114.112 164.904,117.408 164.904,121.968C164.904,126.528 163.896,129.792 161.88,131.76C159.864,133.728 157.224,134.712 153.96,134.712C149.16,134.712 146.12,133.608 144.84,131.4C144.808,132.232 144.504,132.872 143.928,133.32C143.352,133.768 142.712,134.024 142.008,134.088C141.304,134.152 140.024,134.184 138.168,134.184L133.08,134.088C132.472,134.088 131.872,133.872 131.28,133.44C130.688,133.008 130.392,132.472 130.392,131.832Z" style="fill:rgb(255,231,68);fill-rule:nonzero;"/>
                        <path d="M179.832,127.8C179.832,126.904 179.456,126.2 178.704,125.688C177.952,125.176 177.04,124.784 175.968,124.512C174.896,124.24 173.816,123.92 172.728,123.552C171.64,123.184 170.72,122.544 169.968,121.632C169.216,120.72 168.84,119.512 168.84,118.008C168.84,112.056 173.464,109.08 182.712,109.08C186.68,109.08 189.864,109.752 192.264,111.096C193.032,111.512 193.576,111.904 193.896,112.272C194.216,112.64 194.376,113.288 194.376,114.216C194.376,115.144 194.192,115.84 193.824,116.304C193.456,116.768 193.088,117 192.72,117C192.352,117 191.552,116.64 190.32,115.92C189.088,115.2 187.816,114.824 186.504,114.792C185.448,114.792 184.92,115.32 184.92,116.376C184.92,117.08 185.288,117.64 186.024,118.056C186.76,118.472 187.656,118.832 188.712,119.136C189.768,119.44 190.824,119.808 191.88,120.24C192.936,120.672 193.832,121.392 194.568,122.4C195.304,123.408 195.672,124.68 195.672,126.216C195.672,132.168 191.048,135.144 181.8,135.144C177.288,135.144 173.608,134.488 170.76,133.176C169.896,132.824 169.272,132.464 168.888,132.096C168.504,131.728 168.312,131.056 168.312,130.08C168.312,129.104 168.512,128.408 168.912,127.992C169.312,127.576 169.648,127.368 169.92,127.368C170.192,127.368 171.112,127.72 172.68,128.424C174.248,129.128 175.832,129.48 177.432,129.48C179.032,129.48 179.832,128.92 179.832,127.8Z" style="fill:rgb(255,231,68);fill-rule:nonzero;"/>
                    </g>
                </g>
                <g transform="matrix(1,0,0,1,31.68,-99.12)">
                    <path d="M125.8,257.16C124.013,257.32 121.453,257.4 118.12,257.4C114.787,257.4 112.513,257.353 111.3,257.26C110.087,257.167 109.173,256.947 108.56,256.6C107.947,256.253 107.613,255.707 107.56,254.96C107.4,252.08 107.32,248.793 107.32,245.1C107.32,241.407 107.373,237.493 107.48,233.36C107.533,230.8 108.72,229.44 111.04,229.28C112.667,229.173 115.16,229.12 118.52,229.12C121.88,229.12 124.513,229.167 126.42,229.26C128.327,229.353 130.167,229.793 131.94,230.58C133.713,231.367 135.133,232.387 136.2,233.64C138.413,236.227 139.52,239.227 139.52,242.64C139.52,246.24 138.36,249.453 136.04,252.28C134.92,253.64 133.473,254.76 131.7,255.64C129.927,256.52 127.96,257.027 125.8,257.16ZM121,234.88L121,250.56C121,250.773 121.08,250.973 121.24,251.16C121.4,251.347 121.613,251.44 121.88,251.44C123.587,251.44 127.956,251.005 130.32,249.12C132.747,247.185 132.7,244.56 132.7,242.96C132.7,241.36 131.992,238.329 130.32,236.12C128.457,233.659 123.973,233.56 122.56,233.56C122.213,233.56 121.947,233.573 121.76,233.6C121.253,233.733 121,234.16 121,234.88Z" style="fill:rgb(55,124,153);fill-rule:nonzero;"/>
                </g>
                <g transform="matrix(1,0,0,1,54,-70)">
                    <path d="M128.96,209L136.76,209C137.667,209 138.273,209.2 138.58,209.6C138.887,210 139.087,210.887 139.18,212.26C139.273,213.633 139.32,216.14 139.32,219.78C139.32,223.42 139.24,225.987 139.08,227.48C139,227.933 138.773,228.333 138.4,228.68C138.027,229.027 137.367,229.233 136.42,229.3C135.473,229.367 134.347,229.4 133.04,229.4C131.733,229.4 130.547,229.367 129.48,229.3C128.413,229.233 127.693,229.027 127.32,228.68C126.947,228.333 126.733,227.933 126.68,227.48C126.493,225.747 126.4,223.087 126.4,219.5C126.4,215.913 126.453,213.467 126.56,212.16C126.667,210.853 126.867,210 127.16,209.6C127.453,209.2 128.053,209 128.96,209ZM133.28,196.4C135.04,196.4 136.367,196.753 137.26,197.46C138.153,198.167 138.6,199.133 138.6,200.36C138.6,203.24 136.68,204.68 132.84,204.68C131.293,204.68 129.973,204.347 128.88,203.68C127.787,203.013 127.24,202.013 127.24,200.68C127.24,197.827 129.253,196.4 133.28,196.4Z" style="fill:rgb(55,124,153);fill-rule:nonzero;"/>
                </g>
                <g transform="matrix(1,0,0,1,51,-69)">
                    <path d="M169,224C170.683,223.417 171.946,221.881 172,218C172.048,214.604 170.511,212.438 169,212C167.028,211.429 165.221,212.11 164,214C162.749,215.936 162.766,219.772 164,222C164.701,223.266 166.234,224.958 169,224ZM150.48,225.36L150.4,212.28C150.4,208.28 150.44,204.387 150.52,200.6C150.547,199.72 150.713,199.067 151.02,198.64C151.327,198.213 151.92,198 152.8,198L160.48,198C161.36,198 161.953,198.207 162.26,198.62C162.567,199.033 162.767,199.933 162.86,201.32C162.953,202.707 162.932,205.798 163.114,207.916C163.26,209.605 163.84,211.133 164,211C165.867,209.24 170.607,206.36 173.26,206.36C175.913,206.36 178.073,207.207 179.74,208.9C181.407,210.593 182.24,213.34 182.24,217.14C182.24,220.94 181.4,223.66 179.72,225.3C178.04,226.94 175.72,228.4 173,228.4C169,228.4 164.067,226.84 163,225C162.973,225.693 162.24,226.227 161.76,226.6C161.28,226.973 160.747,227.187 160.16,227.24C159.573,227.293 158.507,227.32 156.96,227.32L152.72,227.24C152.213,227.24 151.713,227.06 151.22,226.7C150.727,226.34 150.48,225.893 150.48,225.36Z" style="fill:rgb(55,124,153);fill-rule:nonzero;"/>
                </g>
                <g transform="matrix(1,0,0,1,57,-64)">
                    <path d="M194.2,220C194.619,219.382 194.82,218.071 194.26,217.24C193.836,216.611 192.873,215.487 191.98,215.26C191.087,215.033 190.187,214.767 189.28,214.46C188.373,214.153 185.789,213.423 184.98,212.86C183.651,211.935 183,210.253 183,209C183,204.04 187.893,201.4 195.6,201.4C198.907,201.4 198.947,201.473 201,202C202.946,202.499 202.871,202.54 204,203C205.513,203.617 206.32,203.907 206.32,204.68C206.32,205.453 205.455,206.139 205,206C204.104,205.727 203.122,205.394 202,205C200.972,204.639 199.333,204.267 197.76,205.16C196.995,205.594 196.496,206.065 196.44,207.48C196.417,208.066 197.13,209.206 198.36,209.88C199.197,210.339 199.72,210.527 200.6,210.78C201.48,211.033 202.36,211.34 203.24,211.7C204.12,212.06 204.867,212.66 205.48,213.5C206.093,214.34 206.4,215.4 206.4,216.68C206.4,221.64 202.547,225.12 194.84,225.12C191.08,225.12 188.631,224.521 187,224C185.52,223.528 183.081,222.73 182.6,221.9C182.164,221.148 182.021,220.099 183,220C185.22,219.775 185.64,220.887 187.24,221.52C188.572,222.047 189.667,222 191,222C192.333,222 193.46,221.09 194.2,220Z" style="fill:rgb(55,124,153);fill-rule:nonzero;"/>
                </g>
            </g>
            <g transform="matrix(1,0,0,1,-82,-24.1043)">
                <path d="M97.193,177.615C97.193,177.585 97.194,177.546 97.196,177.499C97.199,177.451 97.204,177.383 97.211,177.293C97.219,177.202 97.23,177.085 97.245,176.94C97.26,176.795 97.283,176.605 97.313,176.37L97.785,172.568L96.938,172.568C96.873,172.568 96.819,172.549 96.776,172.511C96.734,172.474 96.713,172.415 96.713,172.335C96.713,172.32 96.715,172.29 96.72,172.245C96.725,172.2 96.731,172.149 96.739,172.091C96.746,172.034 96.754,171.975 96.761,171.915C96.769,171.855 96.775,171.797 96.78,171.742L97.95,171.585L98.513,169.237C98.533,169.163 98.57,169.101 98.625,169.054C98.68,169.006 98.748,168.982 98.828,168.982L99.533,168.982L99.203,171.6L101.198,171.6L101.085,172.568L99.083,172.568L98.625,176.302C98.6,176.508 98.581,176.672 98.569,176.797C98.556,176.922 98.546,177.022 98.539,177.098C98.531,177.172 98.526,177.225 98.524,177.255C98.521,177.285 98.52,177.307 98.52,177.323C98.52,177.577 98.579,177.766 98.696,177.889C98.814,178.011 98.975,178.073 99.18,178.073C99.31,178.073 99.425,178.054 99.525,178.016C99.625,177.979 99.711,177.937 99.784,177.892C99.856,177.848 99.918,177.806 99.968,177.769C100.018,177.731 100.063,177.712 100.103,177.712C100.143,177.712 100.174,177.723 100.196,177.742C100.219,177.762 100.243,177.795 100.268,177.84L100.545,178.478C100.305,178.693 100.029,178.861 99.716,178.984C99.404,179.106 99.09,179.168 98.775,179.168C98.29,179.168 97.908,179.035 97.628,178.77C97.348,178.505 97.203,178.12 97.193,177.615Z" style="fill:white;fill-rule:nonzero;"/>
                <path d="M101.73,179.047L103.065,168L104.4,168L103.778,173.13C104.173,172.54 104.611,172.094 105.094,171.791C105.576,171.489 106.07,171.337 106.575,171.337C107.15,171.337 107.593,171.527 107.903,171.907C108.213,172.288 108.368,172.84 108.368,173.565C108.368,173.665 108.365,173.769 108.36,173.876C108.355,173.984 108.345,174.095 108.33,174.21L107.76,179.047L106.425,179.047L106.995,174.21C107.005,174.11 107.014,174.014 107.021,173.921C107.029,173.829 107.033,173.74 107.033,173.655C107.033,173.245 106.956,172.94 106.804,172.74C106.651,172.54 106.41,172.44 106.08,172.44C105.855,172.44 105.624,172.501 105.386,172.624C105.149,172.746 104.918,172.92 104.693,173.145C104.468,173.37 104.258,173.641 104.063,173.959C103.868,174.276 103.698,174.63 103.553,175.02L103.065,179.047L101.73,179.047Z" style="fill:white;fill-rule:nonzero;"/>
                <path d="M115.695,173.077C115.695,173.407 115.628,173.711 115.493,173.989C115.358,174.266 115.11,174.516 114.75,174.739C114.39,174.961 113.895,175.155 113.265,175.32C112.635,175.485 111.825,175.617 110.835,175.717C110.83,175.772 110.828,175.826 110.828,175.879C110.828,175.931 110.828,175.985 110.828,176.04C110.828,176.71 110.974,177.221 111.266,177.574C111.559,177.926 112,178.103 112.59,178.103C112.83,178.103 113.044,178.077 113.231,178.027C113.419,177.978 113.586,177.916 113.734,177.844C113.881,177.771 114.011,177.691 114.124,177.604C114.236,177.516 114.34,177.436 114.435,177.364C114.53,177.291 114.618,177.23 114.698,177.18C114.778,177.13 114.858,177.105 114.938,177.105C115.028,177.105 115.11,177.147 115.185,177.232L115.515,177.645C115.26,177.91 115.011,178.136 114.769,178.324C114.526,178.511 114.278,178.668 114.023,178.793C113.768,178.918 113.501,179.009 113.224,179.066C112.946,179.124 112.648,179.152 112.328,179.152C111.893,179.152 111.503,179.08 111.158,178.935C110.813,178.79 110.52,178.584 110.28,178.316C110.04,178.049 109.855,177.725 109.725,177.345C109.595,176.965 109.53,176.54 109.53,176.07C109.53,175.68 109.571,175.291 109.654,174.904C109.736,174.516 109.856,174.147 110.014,173.797C110.171,173.448 110.364,173.122 110.591,172.823C110.819,172.522 111.079,172.264 111.371,172.046C111.664,171.829 111.986,171.658 112.339,171.533C112.691,171.408 113.07,171.345 113.475,171.345C113.86,171.345 114.193,171.4 114.473,171.51C114.753,171.62 114.983,171.76 115.163,171.93C115.343,172.1 115.476,172.288 115.564,172.492C115.651,172.698 115.695,172.892 115.695,173.077ZM113.4,172.305C113.085,172.305 112.795,172.37 112.53,172.5C112.265,172.63 112.03,172.809 111.825,173.036C111.62,173.264 111.445,173.531 111.3,173.839C111.155,174.146 111.043,174.478 110.963,174.832C111.733,174.737 112.35,174.629 112.815,174.506C113.28,174.384 113.638,174.251 113.888,174.109C114.138,173.966 114.303,173.812 114.383,173.647C114.463,173.482 114.503,173.31 114.503,173.13C114.503,173.04 114.483,172.946 114.443,172.849C114.403,172.751 114.339,172.663 114.251,172.582C114.164,172.503 114.05,172.436 113.91,172.384C113.77,172.331 113.6,172.305 113.4,172.305Z" style="fill:white;fill-rule:nonzero;"/>
                <path d="M119.43,179.047L120.345,171.443L121.013,171.443C121.153,171.443 121.263,171.475 121.343,171.54C121.423,171.605 121.463,171.705 121.463,171.84C121.463,171.86 121.461,171.889 121.459,171.926C121.456,171.964 121.454,172.003 121.451,172.043C121.449,172.082 121.446,172.117 121.444,172.147C121.441,172.177 121.44,172.195 121.44,172.2L121.335,173.58C121.66,172.88 122.024,172.34 122.426,171.96C122.829,171.58 123.253,171.39 123.698,171.39C123.908,171.39 124.118,171.435 124.328,171.525L124.088,172.807C123.853,172.712 123.625,172.665 123.405,172.665C122.92,172.665 122.488,172.901 122.108,173.374C121.728,173.846 121.41,174.563 121.155,175.522L120.735,179.047L119.43,179.047Z" style="fill:white;fill-rule:nonzero;"/>
                <path d="M130.47,173.077C130.47,173.407 130.403,173.711 130.268,173.989C130.133,174.266 129.885,174.516 129.525,174.739C129.165,174.961 128.67,175.155 128.04,175.32C127.41,175.485 126.6,175.617 125.61,175.717C125.605,175.772 125.603,175.826 125.603,175.879C125.603,175.931 125.603,175.985 125.603,176.04C125.603,176.71 125.749,177.221 126.041,177.574C126.334,177.926 126.775,178.103 127.365,178.103C127.605,178.103 127.819,178.077 128.006,178.027C128.194,177.978 128.361,177.916 128.509,177.844C128.656,177.771 128.786,177.691 128.899,177.604C129.011,177.516 129.115,177.436 129.21,177.364C129.305,177.291 129.393,177.23 129.473,177.18C129.553,177.13 129.633,177.105 129.713,177.105C129.803,177.105 129.885,177.147 129.96,177.232L130.29,177.645C130.035,177.91 129.786,178.136 129.544,178.324C129.301,178.511 129.053,178.668 128.798,178.793C128.543,178.918 128.276,179.009 127.999,179.066C127.721,179.124 127.423,179.152 127.103,179.152C126.668,179.152 126.278,179.08 125.933,178.935C125.588,178.79 125.295,178.584 125.055,178.316C124.815,178.049 124.63,177.725 124.5,177.345C124.37,176.965 124.305,176.54 124.305,176.07C124.305,175.68 124.346,175.291 124.429,174.904C124.511,174.516 124.631,174.147 124.789,173.797C124.946,173.448 125.139,173.122 125.366,172.823C125.594,172.522 125.854,172.264 126.146,172.046C126.439,171.829 126.761,171.658 127.114,171.533C127.466,171.408 127.845,171.345 128.25,171.345C128.635,171.345 128.968,171.4 129.248,171.51C129.528,171.62 129.758,171.76 129.938,171.93C130.118,172.1 130.251,172.288 130.339,172.492C130.426,172.698 130.47,172.892 130.47,173.077ZM128.175,172.305C127.86,172.305 127.57,172.37 127.305,172.5C127.04,172.63 126.805,172.809 126.6,173.036C126.395,173.264 126.22,173.531 126.075,173.839C125.93,174.146 125.818,174.478 125.738,174.832C126.508,174.737 127.125,174.629 127.59,174.506C128.055,174.384 128.413,174.251 128.663,174.109C128.913,173.966 129.078,173.812 129.158,173.647C129.238,173.482 129.278,173.31 129.278,173.13C129.278,173.04 129.258,172.946 129.218,172.849C129.178,172.751 129.114,172.663 129.026,172.582C128.939,172.503 128.825,172.436 128.685,172.384C128.545,172.331 128.375,172.305 128.175,172.305Z" style="fill:white;fill-rule:nonzero;"/>
                <path d="M136.2,172.665C136.16,172.725 136.12,172.769 136.08,172.796C136.04,172.824 135.99,172.837 135.93,172.837C135.86,172.837 135.784,172.81 135.701,172.755C135.619,172.7 135.519,172.639 135.401,172.571C135.284,172.504 135.14,172.441 134.97,172.384C134.8,172.326 134.595,172.297 134.355,172.297C134.13,172.297 133.925,172.329 133.74,172.391C133.555,172.454 133.395,172.54 133.26,172.65C133.125,172.76 133.021,172.889 132.949,173.036C132.876,173.184 132.84,173.34 132.84,173.505C132.84,173.74 132.918,173.927 133.073,174.068C133.228,174.207 133.423,174.329 133.658,174.431C133.893,174.534 134.146,174.633 134.419,174.728C134.691,174.823 134.945,174.943 135.18,175.087C135.415,175.232 135.61,175.418 135.765,175.642C135.92,175.867 135.998,176.16 135.998,176.52C135.998,176.87 135.929,177.205 135.791,177.525C135.654,177.845 135.456,178.126 135.199,178.369C134.941,178.611 134.631,178.805 134.269,178.95C133.906,179.095 133.5,179.168 133.05,179.168C132.565,179.168 132.136,179.081 131.764,178.909C131.391,178.736 131.088,178.515 130.852,178.245L131.183,177.735C131.223,177.67 131.27,177.62 131.325,177.585C131.38,177.55 131.45,177.533 131.535,177.533C131.615,177.533 131.695,177.568 131.775,177.637C131.855,177.707 131.955,177.786 132.075,177.874C132.195,177.961 132.346,178.04 132.529,178.11C132.711,178.18 132.943,178.215 133.223,178.215C133.468,178.215 133.689,178.177 133.886,178.103C134.084,178.027 134.251,177.927 134.389,177.802C134.526,177.677 134.631,177.531 134.704,177.364C134.776,177.196 134.813,177.017 134.813,176.827C134.813,176.573 134.735,176.37 134.58,176.22C134.425,176.07 134.23,175.945 133.995,175.845C133.76,175.745 133.508,175.651 133.238,175.564C132.968,175.476 132.715,175.364 132.48,175.226C132.245,175.089 132.05,174.91 131.895,174.69C131.74,174.47 131.663,174.177 131.663,173.812C131.663,173.492 131.726,173.184 131.854,172.886C131.981,172.589 132.165,172.325 132.405,172.095C132.645,171.865 132.936,171.681 133.279,171.544C133.621,171.406 134.008,171.337 134.438,171.337C134.893,171.337 135.294,171.414 135.641,171.566C135.989,171.719 136.288,171.925 136.538,172.185L136.2,172.665Z" style="fill:white;fill-rule:nonzero;"/>
                <path d="M143.22,173.077C143.22,173.407 143.153,173.711 143.018,173.989C142.883,174.266 142.635,174.516 142.275,174.739C141.915,174.961 141.42,175.155 140.79,175.32C140.16,175.485 139.35,175.617 138.36,175.717C138.355,175.772 138.353,175.826 138.353,175.879C138.353,175.931 138.353,175.985 138.353,176.04C138.353,176.71 138.499,177.221 138.791,177.574C139.084,177.926 139.525,178.103 140.115,178.103C140.355,178.103 140.569,178.077 140.756,178.027C140.944,177.978 141.111,177.916 141.259,177.844C141.406,177.771 141.536,177.691 141.649,177.604C141.761,177.516 141.865,177.436 141.96,177.364C142.055,177.291 142.143,177.23 142.223,177.18C142.303,177.13 142.383,177.105 142.463,177.105C142.553,177.105 142.635,177.147 142.71,177.232L143.04,177.645C142.785,177.91 142.536,178.136 142.294,178.324C142.051,178.511 141.803,178.668 141.548,178.793C141.293,178.918 141.026,179.009 140.749,179.066C140.471,179.124 140.173,179.152 139.853,179.152C139.418,179.152 139.028,179.08 138.683,178.935C138.338,178.79 138.045,178.584 137.805,178.316C137.565,178.049 137.38,177.725 137.25,177.345C137.12,176.965 137.055,176.54 137.055,176.07C137.055,175.68 137.096,175.291 137.179,174.904C137.261,174.516 137.381,174.147 137.539,173.797C137.696,173.448 137.889,173.122 138.116,172.823C138.344,172.522 138.604,172.264 138.896,172.046C139.189,171.829 139.511,171.658 139.864,171.533C140.216,171.408 140.595,171.345 141,171.345C141.385,171.345 141.718,171.4 141.998,171.51C142.278,171.62 142.508,171.76 142.688,171.93C142.868,172.1 143.001,172.288 143.089,172.492C143.176,172.698 143.22,172.892 143.22,173.077ZM140.925,172.305C140.61,172.305 140.32,172.37 140.055,172.5C139.79,172.63 139.555,172.809 139.35,173.036C139.145,173.264 138.97,173.531 138.825,173.839C138.68,174.146 138.568,174.478 138.488,174.832C139.258,174.737 139.875,174.629 140.34,174.506C140.805,174.384 141.163,174.251 141.413,174.109C141.663,173.966 141.828,173.812 141.908,173.647C141.988,173.482 142.028,173.31 142.028,173.13C142.028,173.04 142.008,172.946 141.968,172.849C141.928,172.751 141.864,172.663 141.776,172.582C141.689,172.503 141.575,172.436 141.435,172.384C141.295,172.331 141.125,172.305 140.925,172.305Z" style="fill:white;fill-rule:nonzero;"/>
                <path d="M144.06,179.047L144.975,171.443L145.643,171.443C145.783,171.443 145.893,171.475 145.973,171.54C146.053,171.605 146.093,171.705 146.093,171.84C146.093,171.86 146.091,171.889 146.089,171.926C146.086,171.964 146.084,172.003 146.081,172.043C146.079,172.082 146.076,172.117 146.074,172.147C146.071,172.177 146.07,172.195 146.07,172.2L145.965,173.58C146.29,172.88 146.654,172.34 147.056,171.96C147.459,171.58 147.883,171.39 148.328,171.39C148.538,171.39 148.748,171.435 148.958,171.525L148.718,172.807C148.483,172.712 148.255,172.665 148.035,172.665C147.55,172.665 147.118,172.901 146.738,173.374C146.358,173.846 146.04,174.563 145.785,175.522L145.365,179.047L144.06,179.047Z" style="fill:white;fill-rule:nonzero;"/>
                <path d="M149.355,171.45L150.435,171.45C150.535,171.45 150.615,171.478 150.675,171.533C150.735,171.587 150.772,171.652 150.788,171.728L151.92,176.617C151.96,176.802 151.989,176.987 152.006,177.172C152.024,177.357 152.038,177.54 152.047,177.72C152.103,177.54 152.16,177.359 152.22,177.176C152.28,176.994 152.355,176.807 152.445,176.617L154.8,171.728C154.84,171.647 154.895,171.581 154.965,171.529C155.035,171.476 155.112,171.45 155.198,171.45L156.24,171.45L152.43,179.047L151.313,179.047L149.355,171.45Z" style="fill:white;fill-rule:nonzero;"/>
                <path d="M161.857,179.047L161.168,179.047C160.992,179.047 160.874,179.003 160.811,178.913C160.749,178.823 160.717,178.712 160.717,178.582L160.853,177.045C160.672,177.365 160.479,177.655 160.271,177.915C160.064,178.175 159.844,178.396 159.611,178.579C159.379,178.761 159.135,178.902 158.88,179.003C158.625,179.103 158.36,179.152 158.085,179.152C157.785,179.152 157.512,179.094 157.267,178.976C157.022,178.859 156.814,178.686 156.641,178.459C156.469,178.231 156.335,177.951 156.24,177.619C156.145,177.286 156.098,176.905 156.098,176.475C156.098,176.025 156.154,175.586 156.266,175.159C156.379,174.731 156.539,174.327 156.746,173.948C156.954,173.568 157.202,173.219 157.492,172.901C157.782,172.584 158.106,172.309 158.464,172.076C158.821,171.844 159.205,171.664 159.615,171.536C160.025,171.409 160.455,171.345 160.905,171.345C161.23,171.345 161.546,171.371 161.854,171.424C162.161,171.476 162.465,171.568 162.765,171.698L161.857,179.047ZM158.587,178.043C158.832,178.043 159.073,177.966 159.307,177.814C159.543,177.661 159.765,177.45 159.975,177.18C160.185,176.91 160.381,176.589 160.564,176.216C160.746,175.844 160.907,175.435 161.047,174.99L161.37,172.38C161.26,172.355 161.151,172.339 161.044,172.331C160.936,172.324 160.83,172.32 160.725,172.32C160.425,172.32 160.135,172.369 159.855,172.466C159.575,172.564 159.312,172.7 159.068,172.875C158.823,173.05 158.6,173.259 158.4,173.501C158.2,173.744 158.029,174.01 157.886,174.3C157.744,174.59 157.633,174.899 157.552,175.226C157.473,175.554 157.432,175.89 157.432,176.235C157.432,177.44 157.818,178.043 158.587,178.043Z" style="fill:white;fill-rule:nonzero;"/>
                <path d="M164.505,177.615C164.505,177.585 164.506,177.546 164.509,177.499C164.511,177.451 164.516,177.383 164.524,177.293C164.531,177.202 164.542,177.085 164.557,176.94C164.572,176.795 164.595,176.605 164.625,176.37L165.097,172.568L164.25,172.568C164.185,172.568 164.131,172.549 164.089,172.511C164.046,172.474 164.025,172.415 164.025,172.335C164.025,172.32 164.027,172.29 164.032,172.245C164.037,172.2 164.044,172.149 164.051,172.091C164.059,172.034 164.066,171.975 164.074,171.915C164.081,171.855 164.087,171.797 164.092,171.742L165.262,171.585L165.825,169.237C165.845,169.163 165.882,169.101 165.937,169.054C165.992,169.006 166.06,168.982 166.14,168.982L166.845,168.982L166.515,171.6L168.51,171.6L168.397,172.568L166.395,172.568L165.937,176.302C165.912,176.508 165.894,176.672 165.881,176.797C165.869,176.922 165.859,177.022 165.851,177.098C165.844,177.172 165.839,177.225 165.836,177.255C165.834,177.285 165.832,177.307 165.832,177.323C165.832,177.577 165.891,177.766 166.009,177.889C166.126,178.011 166.287,178.073 166.492,178.073C166.622,178.073 166.737,178.054 166.837,178.016C166.937,177.979 167.024,177.937 167.096,177.892C167.169,177.848 167.23,177.806 167.28,177.769C167.33,177.731 167.375,177.712 167.415,177.712C167.455,177.712 167.486,177.723 167.509,177.742C167.531,177.762 167.555,177.795 167.58,177.84L167.857,178.478C167.617,178.693 167.341,178.861 167.029,178.984C166.716,179.106 166.402,179.168 166.087,179.168C165.602,179.168 165.22,179.035 164.94,178.77C164.66,178.505 164.515,178.12 164.505,177.615Z" style="fill:white;fill-rule:nonzero;"/>
                <path d="M171.39,171.45L170.475,179.047L169.162,179.047L170.077,171.45L171.39,171.45ZM171.892,169.065C171.892,169.195 171.866,169.316 171.814,169.429C171.761,169.541 171.691,169.641 171.604,169.729C171.516,169.816 171.417,169.885 171.307,169.935C171.197,169.985 171.082,170.01 170.962,170.01C170.847,170.01 170.735,169.985 170.625,169.935C170.515,169.885 170.419,169.816 170.336,169.729C170.254,169.641 170.187,169.541 170.137,169.429C170.087,169.316 170.062,169.195 170.062,169.065C170.062,168.935 170.087,168.813 170.137,168.698C170.187,168.582 170.255,168.481 170.34,168.394C170.425,168.306 170.522,168.236 170.632,168.184C170.742,168.131 170.855,168.105 170.97,168.105C171.09,168.105 171.205,168.13 171.315,168.18C171.425,168.23 171.524,168.299 171.611,168.386C171.699,168.474 171.767,168.576 171.817,168.694C171.867,168.811 171.892,168.935 171.892,169.065Z" style="fill:white;fill-rule:nonzero;"/>
                <path d="M175.462,178.11C175.827,178.11 176.16,178.01 176.46,177.81C176.76,177.61 177.015,177.344 177.225,177.011C177.435,176.679 177.597,176.295 177.712,175.86C177.827,175.425 177.885,174.97 177.885,174.495C177.885,173.795 177.747,173.267 177.472,172.913C177.197,172.557 176.8,172.38 176.28,172.38C175.91,172.38 175.576,172.479 175.279,172.676C174.981,172.874 174.727,173.139 174.517,173.471C174.307,173.804 174.145,174.187 174.03,174.622C173.915,175.057 173.857,175.512 173.857,175.987C173.857,176.687 173.994,177.216 174.266,177.574C174.539,177.931 174.937,178.11 175.462,178.11ZM175.342,179.152C174.927,179.152 174.547,179.081 174.202,178.939C173.857,178.796 173.56,178.59 173.31,178.32C173.06,178.05 172.865,177.72 172.725,177.33C172.585,176.94 172.515,176.495 172.515,175.995C172.515,175.355 172.615,174.753 172.815,174.187C173.015,173.622 173.289,173.128 173.636,172.702C173.984,172.277 174.394,171.943 174.866,171.698C175.339,171.452 175.85,171.33 176.4,171.33C176.815,171.33 177.195,171.401 177.54,171.544C177.885,171.686 178.182,171.892 178.432,172.163C178.682,172.432 178.877,172.764 179.017,173.156C179.157,173.549 179.227,173.992 179.227,174.487C179.227,175.122 179.127,175.723 178.927,176.288C178.727,176.853 178.454,177.348 178.106,177.772C177.759,178.198 177.347,178.534 176.872,178.781C176.397,179.029 175.887,179.152 175.342,179.152Z" style="fill:white;fill-rule:nonzero;"/>
                <path d="M180.172,179.047L181.08,171.443L181.747,171.443C182.047,171.443 182.197,171.592 182.197,171.892L182.085,173.362C182.49,172.693 182.946,172.188 183.454,171.848C183.961,171.508 184.487,171.337 185.032,171.337C185.597,171.337 186.036,171.527 186.349,171.907C186.661,172.288 186.817,172.842 186.817,173.573C186.817,173.672 186.815,173.775 186.81,173.88C186.805,173.985 186.795,174.095 186.78,174.21L186.21,179.047L184.875,179.047L185.445,174.21C185.455,174.11 185.464,174.014 185.471,173.921C185.479,173.829 185.482,173.74 185.482,173.655C185.482,173.245 185.406,172.941 185.254,172.744C185.101,172.546 184.862,172.448 184.537,172.448C184.297,172.448 184.054,172.512 183.806,172.642C183.559,172.772 183.32,172.956 183.09,173.194C182.86,173.431 182.646,173.719 182.449,174.056C182.251,174.394 182.082,174.77 181.942,175.185L181.507,179.047L180.172,179.047Z" style="fill:white;fill-rule:nonzero;"/>
                <path d="M196.545,179.047L195.855,179.047C195.68,179.047 195.561,179.003 195.499,178.913C195.436,178.823 195.405,178.712 195.405,178.582L195.54,177.045C195.36,177.365 195.166,177.655 194.959,177.915C194.751,178.175 194.531,178.396 194.299,178.579C194.066,178.761 193.823,178.902 193.568,179.003C193.312,179.103 193.047,179.152 192.772,179.152C192.473,179.152 192.2,179.094 191.955,178.976C191.71,178.859 191.501,178.686 191.329,178.459C191.156,178.231 191.022,177.951 190.927,177.619C190.832,177.286 190.785,176.905 190.785,176.475C190.785,176.025 190.841,175.586 190.954,175.159C191.066,174.731 191.226,174.327 191.434,173.948C191.641,173.568 191.89,173.219 192.18,172.901C192.47,172.584 192.794,172.309 193.151,172.076C193.509,171.844 193.892,171.664 194.302,171.536C194.712,171.409 195.142,171.345 195.592,171.345C195.918,171.345 196.234,171.371 196.541,171.424C196.849,171.476 197.152,171.568 197.452,171.698L196.545,179.047ZM193.275,178.043C193.52,178.043 193.76,177.966 193.995,177.814C194.23,177.661 194.452,177.45 194.663,177.18C194.872,176.91 195.069,176.589 195.251,176.216C195.434,175.844 195.595,175.435 195.735,174.99L196.057,172.38C195.948,172.355 195.839,172.339 195.731,172.331C195.624,172.324 195.517,172.32 195.413,172.32C195.112,172.32 194.823,172.369 194.543,172.466C194.262,172.564 194,172.7 193.755,172.875C193.51,173.05 193.288,173.259 193.087,173.501C192.887,173.744 192.716,174.01 192.574,174.3C192.431,174.59 192.32,174.899 192.24,175.226C192.16,175.554 192.12,175.89 192.12,176.235C192.12,177.44 192.505,178.043 193.275,178.043Z" style="fill:white;fill-rule:nonzero;"/>
                <path d="M198.21,181.62L199.447,171.443L200.115,171.443C200.415,171.443 200.565,171.592 200.565,171.892L200.437,173.512C200.627,173.182 200.835,172.884 201.06,172.616C201.285,172.349 201.521,172.12 201.769,171.93C202.016,171.74 202.275,171.594 202.545,171.491C202.815,171.389 203.09,171.337 203.37,171.337C204.015,171.337 204.517,171.573 204.877,172.043C205.237,172.512 205.417,173.2 205.417,174.105C205.417,174.515 205.375,174.925 205.29,175.335C205.205,175.745 205.084,176.136 204.926,176.509C204.769,176.881 204.579,177.229 204.356,177.551C204.134,177.874 203.886,178.154 203.614,178.391C203.341,178.629 203.045,178.815 202.725,178.95C202.405,179.085 202.07,179.152 201.72,179.152C201.345,179.152 201.002,179.079 200.692,178.931C200.382,178.784 200.122,178.573 199.912,178.297L199.507,181.62L198.21,181.62ZM202.867,172.41C202.627,172.41 202.384,172.485 202.136,172.635C201.889,172.785 201.65,172.995 201.42,173.265C201.19,173.535 200.976,173.855 200.779,174.225C200.581,174.595 200.41,174.997 200.265,175.432L200.025,177.367C200.215,177.642 200.444,177.836 200.711,177.949C200.979,178.061 201.25,178.117 201.525,178.117C201.785,178.117 202.03,178.062 202.26,177.952C202.49,177.842 202.7,177.694 202.89,177.506C203.08,177.319 203.25,177.099 203.4,176.846C203.55,176.594 203.676,176.324 203.779,176.036C203.881,175.749 203.96,175.451 204.015,175.144C204.07,174.836 204.097,174.533 204.097,174.232C204.097,173.637 203.99,173.185 203.775,172.875C203.56,172.565 203.257,172.41 202.867,172.41Z" style="fill:white;fill-rule:nonzero;"/>
                <path d="M205.98,181.62L207.217,171.443L207.885,171.443C208.185,171.443 208.335,171.592 208.335,171.892L208.207,173.512C208.397,173.182 208.605,172.884 208.83,172.616C209.055,172.349 209.291,172.12 209.539,171.93C209.786,171.74 210.045,171.594 210.315,171.491C210.585,171.389 210.86,171.337 211.14,171.337C211.785,171.337 212.288,171.573 212.647,172.043C213.008,172.512 213.187,173.2 213.187,174.105C213.187,174.515 213.145,174.925 213.06,175.335C212.975,175.745 212.854,176.136 212.696,176.509C212.539,176.881 212.349,177.229 212.126,177.551C211.904,177.874 211.656,178.154 211.384,178.391C211.111,178.629 210.815,178.815 210.495,178.95C210.175,179.085 209.84,179.152 209.49,179.152C209.115,179.152 208.772,179.079 208.462,178.931C208.152,178.784 207.892,178.573 207.682,178.297L207.277,181.62L205.98,181.62ZM210.637,172.41C210.397,172.41 210.154,172.485 209.906,172.635C209.659,172.785 209.42,172.995 209.19,173.265C208.96,173.535 208.746,173.855 208.549,174.225C208.351,174.595 208.18,174.997 208.035,175.432L207.795,177.367C207.985,177.642 208.214,177.836 208.481,177.949C208.749,178.061 209.02,178.117 209.295,178.117C209.555,178.117 209.8,178.062 210.03,177.952C210.26,177.842 210.47,177.694 210.66,177.506C210.85,177.319 211.02,177.099 211.17,176.846C211.32,176.594 211.446,176.324 211.549,176.036C211.651,175.749 211.73,175.451 211.785,175.144C211.84,174.836 211.867,174.533 211.867,174.232C211.867,173.637 211.76,173.185 211.545,172.875C211.33,172.565 211.027,172.41 210.637,172.41Z" style="fill:white;fill-rule:nonzero;"/>
                <path d="M219.24,172.56L218.483,178.8L218.137,180.353C218.053,180.728 217.823,180.915 217.448,180.915L216.923,180.915L217.935,172.582L217.185,172.485C217.1,172.46 217.033,172.425 216.983,172.38C216.933,172.335 216.908,172.27 216.908,172.185L216.968,171.6L218.055,171.6L218.145,170.865C218.2,170.43 218.309,170.044 218.471,169.706C218.634,169.369 218.839,169.084 219.086,168.851C219.334,168.619 219.616,168.443 219.934,168.323C220.251,168.202 220.593,168.142 220.958,168.142C221.268,168.142 221.55,168.193 221.805,168.293L221.678,168.982C221.667,169.052 221.634,169.096 221.576,169.114C221.519,169.131 221.445,169.14 221.355,169.14C221.31,169.14 221.261,169.139 221.209,169.136C221.156,169.134 221.1,169.133 221.04,169.133C220.825,169.133 220.626,169.164 220.444,169.226C220.261,169.289 220.1,169.39 219.96,169.53C219.82,169.67 219.703,169.853 219.608,170.077C219.512,170.302 219.445,170.577 219.405,170.902L219.315,171.6L221.213,171.6L221.085,172.56L219.24,172.56Z" style="fill:white;fill-rule:nonzero;"/>
                <path d="M224.333,178.11C224.698,178.11 225.03,178.01 225.33,177.81C225.63,177.61 225.885,177.344 226.095,177.011C226.305,176.679 226.468,176.295 226.583,175.86C226.698,175.425 226.755,174.97 226.755,174.495C226.755,173.795 226.618,173.267 226.343,172.913C226.068,172.557 225.67,172.38 225.15,172.38C224.78,172.38 224.446,172.479 224.149,172.676C223.851,172.874 223.598,173.139 223.387,173.471C223.178,173.804 223.015,174.187 222.9,174.622C222.785,175.057 222.728,175.512 222.728,175.987C222.728,176.687 222.864,177.216 223.136,177.574C223.409,177.931 223.808,178.11 224.333,178.11ZM224.213,179.152C223.797,179.152 223.417,179.081 223.073,178.939C222.728,178.796 222.43,178.59 222.18,178.32C221.93,178.05 221.735,177.72 221.595,177.33C221.455,176.94 221.385,176.495 221.385,175.995C221.385,175.355 221.485,174.753 221.685,174.187C221.885,173.622 222.159,173.128 222.506,172.702C222.854,172.277 223.264,171.943 223.736,171.698C224.209,171.452 224.72,171.33 225.27,171.33C225.685,171.33 226.065,171.401 226.41,171.544C226.755,171.686 227.053,171.892 227.303,172.163C227.553,172.432 227.748,172.764 227.887,173.156C228.028,173.549 228.098,173.992 228.098,174.487C228.098,175.122 227.998,175.723 227.797,176.288C227.598,176.853 227.324,177.348 226.976,177.772C226.629,178.198 226.218,178.534 225.743,178.781C225.267,179.029 224.758,179.152 224.213,179.152Z" style="fill:white;fill-rule:nonzero;"/>
                <path d="M229.042,179.047L229.957,171.443L230.625,171.443C230.765,171.443 230.875,171.475 230.955,171.54C231.035,171.605 231.075,171.705 231.075,171.84C231.075,171.86 231.074,171.889 231.071,171.926C231.069,171.964 231.066,172.003 231.064,172.043C231.061,172.082 231.059,172.117 231.056,172.147C231.054,172.177 231.052,172.195 231.052,172.2L230.948,173.58C231.272,172.88 231.636,172.34 232.039,171.96C232.441,171.58 232.865,171.39 233.31,171.39C233.52,171.39 233.73,171.435 233.94,171.525L233.7,172.807C233.465,172.712 233.237,172.665 233.017,172.665C232.533,172.665 232.1,172.901 231.72,173.374C231.34,173.846 231.022,174.563 230.767,175.522L230.348,179.047L229.042,179.047Z" style="fill:white;fill-rule:nonzero;"/>
            </g>
            <g transform="matrix(1,0,0,1,-3,-13)">
                <path d="M18.805,175.56L18.048,181.8L17.703,183.353C17.618,183.728 17.388,183.915 17.013,183.915L16.488,183.915L17.5,175.583L16.75,175.485C16.665,175.46 16.598,175.425 16.548,175.38C16.498,175.335 16.473,175.27 16.473,175.185L16.533,174.6L17.62,174.6L17.71,173.865C17.765,173.43 17.874,173.044 18.036,172.706C18.199,172.369 18.404,172.084 18.651,171.851C18.899,171.619 19.181,171.443 19.499,171.323C19.816,171.203 20.158,171.143 20.523,171.143C20.833,171.143 21.115,171.193 21.37,171.293L21.243,171.983C21.233,172.053 21.199,172.096 21.141,172.114C21.084,172.131 21.01,172.14 20.92,172.14C20.875,172.14 20.826,172.139 20.774,172.136C20.721,172.134 20.665,172.133 20.605,172.133C20.39,172.133 20.191,172.164 20.009,172.226C19.826,172.289 19.665,172.39 19.525,172.53C19.385,172.67 19.268,172.853 19.173,173.078C19.078,173.303 19.01,173.578 18.97,173.903L18.88,174.6L20.778,174.6L20.65,175.56L18.805,175.56Z" style="fill:white;fill-rule:nonzero;"/>
                <path d="M26.658,182.048L25.968,182.048C25.793,182.048 25.674,182.003 25.611,181.913C25.549,181.823 25.518,181.713 25.518,181.583L25.653,180.045C25.473,180.365 25.279,180.655 25.071,180.915C24.864,181.175 24.644,181.396 24.411,181.579C24.179,181.761 23.935,181.903 23.68,182.003C23.425,182.103 23.16,182.153 22.885,182.153C22.585,182.153 22.313,182.094 22.068,181.976C21.823,181.859 21.614,181.686 21.441,181.459C21.269,181.231 21.135,180.951 21.04,180.619C20.945,180.286 20.898,179.905 20.898,179.475C20.898,179.025 20.954,178.586 21.066,178.159C21.179,177.731 21.339,177.328 21.546,176.948C21.754,176.568 22.003,176.219 22.293,175.901C22.583,175.584 22.906,175.309 23.264,175.076C23.621,174.844 24.005,174.664 24.415,174.536C24.825,174.409 25.255,174.345 25.705,174.345C26.03,174.345 26.346,174.371 26.654,174.424C26.961,174.476 27.265,174.568 27.565,174.698L26.658,182.048ZM23.388,181.043C23.633,181.043 23.873,180.966 24.108,180.814C24.343,180.661 24.565,180.45 24.775,180.18C24.985,179.91 25.181,179.589 25.364,179.216C25.546,178.844 25.708,178.435 25.848,177.99L26.17,175.38C26.06,175.355 25.951,175.339 25.844,175.331C25.736,175.324 25.63,175.32 25.525,175.32C25.225,175.32 24.935,175.369 24.655,175.466C24.375,175.564 24.113,175.7 23.868,175.875C23.623,176.05 23.4,176.259 23.2,176.501C23,176.744 22.829,177.01 22.686,177.3C22.544,177.59 22.433,177.899 22.353,178.226C22.273,178.554 22.233,178.89 22.233,179.235C22.233,180.44 22.618,181.043 23.388,181.043Z" style="fill:white;fill-rule:nonzero;"/>
                <path d="M28.645,182.048L29.56,174.443L30.228,174.443C30.528,174.443 30.678,174.593 30.678,174.893L30.573,176.25C30.948,175.62 31.358,175.144 31.803,174.821C32.248,174.499 32.718,174.338 33.213,174.338C33.728,174.338 34.108,174.514 34.353,174.866C34.598,175.219 34.72,175.723 34.72,176.378C35.1,175.683 35.526,175.169 35.999,174.836C36.471,174.504 36.968,174.338 37.488,174.338C38.048,174.338 38.466,174.52 38.744,174.885C39.021,175.25 39.16,175.775 39.16,176.46C39.16,176.575 39.155,176.695 39.145,176.82C39.135,176.945 39.123,177.075 39.108,177.21L38.538,182.048L37.225,182.048L37.795,177.21C37.825,176.965 37.84,176.743 37.84,176.543C37.84,176.168 37.778,175.891 37.653,175.714C37.528,175.536 37.318,175.448 37.023,175.448C36.808,175.448 36.593,175.501 36.378,175.609C36.163,175.716 35.955,175.874 35.755,176.081C35.555,176.289 35.369,176.546 35.196,176.854C35.024,177.161 34.87,177.515 34.735,177.915L34.248,182.048L32.928,182.048L33.505,177.21C33.52,177.075 33.533,176.948 33.543,176.828C33.553,176.708 33.558,176.595 33.558,176.49C33.558,176.135 33.499,175.873 33.381,175.703C33.264,175.533 33.058,175.448 32.763,175.448C32.523,175.448 32.291,175.508 32.069,175.628C31.846,175.748 31.636,175.921 31.439,176.149C31.241,176.376 31.058,176.654 30.888,176.981C30.718,177.309 30.563,177.678 30.423,178.088L29.95,182.048L28.645,182.048Z" style="fill:white;fill-rule:nonzero;"/>
                <path d="M42.805,174.45L41.89,182.048L40.578,182.048L41.493,174.45L42.805,174.45ZM43.308,172.065C43.308,172.195 43.281,172.316 43.229,172.429C43.176,172.541 43.106,172.641 43.019,172.729C42.931,172.816 42.833,172.885 42.723,172.935C42.613,172.985 42.498,173.01 42.378,173.01C42.263,173.01 42.15,172.985 42.04,172.935C41.93,172.885 41.834,172.816 41.751,172.729C41.669,172.641 41.603,172.541 41.553,172.429C41.503,172.316 41.478,172.195 41.478,172.065C41.478,171.935 41.503,171.813 41.553,171.698C41.603,171.583 41.67,171.481 41.755,171.394C41.84,171.306 41.938,171.236 42.048,171.184C42.158,171.131 42.27,171.105 42.385,171.105C42.505,171.105 42.62,171.13 42.73,171.18C42.84,171.23 42.939,171.299 43.026,171.386C43.114,171.474 43.183,171.576 43.233,171.694C43.283,171.811 43.308,171.935 43.308,172.065Z" style="fill:white;fill-rule:nonzero;"/>
                <path d="M44.178,182.048L45.52,171L46.833,171L45.49,182.048L44.178,182.048Z" style="fill:white;fill-rule:nonzero;"/>
                <path d="M49.45,184.313C49.345,184.518 49.19,184.62 48.985,184.62L48.01,184.62L49.653,181.598L47.688,174.45L48.79,174.45C48.895,174.45 48.974,174.476 49.026,174.529C49.079,174.581 49.115,174.648 49.135,174.728L50.358,179.513C50.383,179.618 50.403,179.723 50.418,179.828C50.433,179.933 50.445,180.038 50.455,180.143C50.5,180.038 50.544,179.931 50.586,179.824C50.629,179.716 50.678,179.61 50.733,179.505L53.133,174.713C53.173,174.633 53.229,174.569 53.301,174.521C53.374,174.474 53.448,174.45 53.523,174.45L54.58,174.45L49.45,184.313Z" style="fill:white;fill-rule:nonzero;"/>
                <path d="M62.538,175.665C62.498,175.725 62.458,175.769 62.418,175.796C62.378,175.824 62.328,175.838 62.268,175.838C62.198,175.838 62.121,175.81 62.039,175.755C61.956,175.7 61.856,175.639 61.739,175.571C61.621,175.504 61.478,175.441 61.308,175.384C61.138,175.326 60.933,175.298 60.693,175.298C60.468,175.298 60.263,175.329 60.078,175.391C59.893,175.454 59.733,175.54 59.598,175.65C59.463,175.76 59.359,175.889 59.286,176.036C59.214,176.184 59.178,176.34 59.178,176.505C59.178,176.74 59.255,176.928 59.41,177.068C59.565,177.208 59.76,177.329 59.995,177.431C60.23,177.534 60.484,177.633 60.756,177.728C61.029,177.823 61.283,177.943 61.518,178.088C61.753,178.233 61.948,178.418 62.103,178.643C62.258,178.868 62.335,179.16 62.335,179.52C62.335,179.87 62.266,180.205 62.129,180.525C61.991,180.845 61.794,181.126 61.536,181.369C61.279,181.611 60.969,181.805 60.606,181.95C60.244,182.095 59.838,182.168 59.388,182.168C58.903,182.168 58.474,182.081 58.101,181.909C57.729,181.736 57.425,181.515 57.19,181.245L57.52,180.735C57.56,180.67 57.608,180.62 57.663,180.585C57.718,180.55 57.788,180.533 57.873,180.533C57.953,180.533 58.033,180.568 58.113,180.638C58.193,180.708 58.293,180.786 58.413,180.874C58.533,180.961 58.684,181.04 58.866,181.11C59.049,181.18 59.28,181.215 59.56,181.215C59.805,181.215 60.026,181.178 60.224,181.103C60.421,181.028 60.589,180.928 60.726,180.803C60.864,180.678 60.969,180.531 61.041,180.364C61.114,180.196 61.15,180.018 61.15,179.828C61.15,179.573 61.073,179.37 60.918,179.22C60.763,179.07 60.568,178.945 60.333,178.845C60.098,178.745 59.845,178.651 59.575,178.564C59.305,178.476 59.053,178.364 58.818,178.226C58.583,178.089 58.388,177.91 58.233,177.69C58.078,177.47 58,177.178 58,176.813C58,176.493 58.064,176.184 58.191,175.886C58.319,175.589 58.503,175.325 58.743,175.095C58.983,174.865 59.274,174.681 59.616,174.544C59.959,174.406 60.345,174.338 60.775,174.338C61.23,174.338 61.631,174.414 61.979,174.566C62.326,174.719 62.625,174.925 62.875,175.185L62.538,175.665Z" style="fill:white;fill-rule:nonzero;"/>
                <path d="M63.543,182.048L64.878,171L66.213,171L65.59,176.13C65.985,175.54 66.424,175.094 66.906,174.791C67.389,174.489 67.883,174.338 68.388,174.338C68.963,174.338 69.405,174.528 69.715,174.908C70.025,175.288 70.18,175.84 70.18,176.565C70.18,176.665 70.178,176.769 70.173,176.876C70.168,176.984 70.158,177.095 70.143,177.21L69.573,182.048L68.238,182.048L68.808,177.21C68.818,177.11 68.826,177.014 68.834,176.921C68.841,176.829 68.845,176.74 68.845,176.655C68.845,176.245 68.769,175.94 68.616,175.74C68.464,175.54 68.223,175.44 67.893,175.44C67.668,175.44 67.436,175.501 67.199,175.624C66.961,175.746 66.73,175.92 66.505,176.145C66.28,176.37 66.07,176.641 65.875,176.959C65.68,177.276 65.51,177.63 65.365,178.02L64.878,182.048L63.543,182.048Z" style="fill:white;fill-rule:nonzero;"/>
                <path d="M77.02,182.048L76.33,182.048C76.155,182.048 76.036,182.003 75.974,181.913C75.911,181.823 75.88,181.713 75.88,181.583L76.015,180.045C75.835,180.365 75.641,180.655 75.434,180.915C75.226,181.175 75.006,181.396 74.774,181.579C74.541,181.761 74.298,181.903 74.043,182.003C73.788,182.103 73.523,182.153 73.248,182.153C72.948,182.153 72.675,182.094 72.43,181.976C72.185,181.859 71.976,181.686 71.804,181.459C71.631,181.231 71.498,180.951 71.403,180.619C71.308,180.286 71.26,179.905 71.26,179.475C71.26,179.025 71.316,178.586 71.429,178.159C71.541,177.731 71.701,177.328 71.909,176.948C72.116,176.568 72.365,176.219 72.655,175.901C72.945,175.584 73.269,175.309 73.626,175.076C73.984,174.844 74.368,174.664 74.778,174.536C75.188,174.409 75.618,174.345 76.068,174.345C76.393,174.345 76.709,174.371 77.016,174.424C77.324,174.476 77.628,174.568 77.928,174.698L77.02,182.048ZM73.75,181.043C73.995,181.043 74.235,180.966 74.47,180.814C74.705,180.661 74.928,180.45 75.138,180.18C75.348,179.91 75.544,179.589 75.726,179.216C75.909,178.844 76.07,178.435 76.21,177.99L76.533,175.38C76.423,175.355 76.314,175.339 76.206,175.331C76.099,175.324 75.993,175.32 75.888,175.32C75.588,175.32 75.298,175.369 75.018,175.466C74.738,175.564 74.475,175.7 74.23,175.875C73.985,176.05 73.763,176.259 73.563,176.501C73.363,176.744 73.191,177.01 73.049,177.3C72.906,177.59 72.795,177.899 72.715,178.226C72.635,178.554 72.595,178.89 72.595,179.235C72.595,180.44 72.98,181.043 73.75,181.043Z" style="fill:white;fill-rule:nonzero;"/>
                <path d="M79.008,182.048L79.923,174.443L80.59,174.443C80.73,174.443 80.84,174.475 80.92,174.54C81,174.605 81.04,174.705 81.04,174.84C81.04,174.86 81.039,174.889 81.036,174.926C81.034,174.964 81.031,175.003 81.029,175.043C81.026,175.083 81.024,175.118 81.021,175.148C81.019,175.178 81.018,175.195 81.018,175.2L80.913,176.58C81.238,175.88 81.601,175.34 82.004,174.96C82.406,174.58 82.83,174.39 83.275,174.39C83.485,174.39 83.695,174.435 83.905,174.525L83.665,175.808C83.43,175.713 83.203,175.665 82.983,175.665C82.498,175.665 82.065,175.901 81.685,176.374C81.305,176.846 80.988,177.563 80.733,178.523L80.313,182.048L79.008,182.048Z" style="fill:white;fill-rule:nonzero;"/>
                <path d="M90.048,176.078C90.048,176.408 89.98,176.711 89.845,176.989C89.71,177.266 89.463,177.516 89.103,177.739C88.743,177.961 88.248,178.155 87.618,178.32C86.988,178.485 86.178,178.618 85.188,178.718C85.183,178.773 85.18,178.826 85.18,178.879C85.18,178.931 85.18,178.985 85.18,179.04C85.18,179.71 85.326,180.221 85.619,180.574C85.911,180.926 86.353,181.103 86.943,181.103C87.183,181.103 87.396,181.078 87.584,181.028C87.771,180.978 87.939,180.916 88.086,180.844C88.234,180.771 88.364,180.691 88.476,180.604C88.589,180.516 88.693,180.436 88.788,180.364C88.883,180.291 88.97,180.23 89.05,180.18C89.13,180.13 89.21,180.105 89.29,180.105C89.38,180.105 89.463,180.148 89.538,180.233L89.868,180.645C89.613,180.91 89.364,181.136 89.121,181.324C88.879,181.511 88.63,181.668 88.375,181.793C88.12,181.918 87.854,182.009 87.576,182.066C87.299,182.124 87,182.153 86.68,182.153C86.245,182.153 85.855,182.08 85.51,181.935C85.165,181.79 84.873,181.584 84.633,181.316C84.393,181.049 84.208,180.725 84.078,180.345C83.948,179.965 83.883,179.54 83.883,179.07C83.883,178.68 83.924,178.291 84.006,177.904C84.089,177.516 84.209,177.148 84.366,176.798C84.524,176.448 84.716,176.123 84.944,175.823C85.171,175.523 85.431,175.264 85.724,175.046C86.016,174.829 86.339,174.658 86.691,174.533C87.044,174.408 87.423,174.345 87.828,174.345C88.213,174.345 88.545,174.4 88.825,174.51C89.105,174.62 89.335,174.76 89.515,174.93C89.695,175.1 89.829,175.288 89.916,175.493C90.004,175.698 90.048,175.893 90.048,176.078ZM87.753,175.305C87.438,175.305 87.148,175.37 86.883,175.5C86.618,175.63 86.383,175.809 86.178,176.036C85.973,176.264 85.798,176.531 85.653,176.839C85.508,177.146 85.395,177.478 85.315,177.833C86.085,177.738 86.703,177.629 87.168,177.506C87.633,177.384 87.99,177.251 88.24,177.109C88.49,176.966 88.655,176.813 88.735,176.648C88.815,176.483 88.855,176.31 88.855,176.13C88.855,176.04 88.835,175.946 88.795,175.849C88.755,175.751 88.691,175.663 88.604,175.583C88.516,175.503 88.403,175.436 88.263,175.384C88.123,175.331 87.953,175.305 87.753,175.305Z" style="fill:white;fill-rule:nonzero;"/>
                <path d="M96.025,182.048C95.85,182.048 95.731,182.003 95.669,181.913C95.606,181.823 95.575,181.713 95.575,181.583L95.718,180C95.528,180.325 95.32,180.62 95.095,180.885C94.87,181.15 94.634,181.376 94.386,181.564C94.139,181.751 93.881,181.896 93.614,181.999C93.346,182.101 93.075,182.153 92.8,182.153C92.15,182.153 91.646,181.916 91.289,181.444C90.931,180.971 90.753,180.285 90.753,179.385C90.753,178.975 90.795,178.565 90.88,178.155C90.965,177.745 91.086,177.353 91.244,176.978C91.401,176.603 91.591,176.254 91.814,175.931C92.036,175.609 92.284,175.33 92.556,175.095C92.829,174.86 93.125,174.675 93.445,174.54C93.765,174.405 94.1,174.338 94.45,174.338C94.82,174.338 95.159,174.41 95.466,174.555C95.774,174.7 96.035,174.908 96.25,175.178L96.768,171L98.08,171L96.715,182.048L96.025,182.048ZM93.303,181.08C93.543,181.08 93.784,181.006 94.026,180.859C94.269,180.711 94.504,180.506 94.731,180.244C94.959,179.981 95.171,179.669 95.369,179.306C95.566,178.944 95.738,178.548 95.883,178.118L96.13,176.108C95.94,175.843 95.713,175.655 95.448,175.545C95.183,175.435 94.915,175.38 94.645,175.38C94.25,175.38 93.894,175.498 93.576,175.733C93.259,175.968 92.989,176.271 92.766,176.644C92.544,177.016 92.373,177.433 92.253,177.893C92.133,178.353 92.073,178.805 92.073,179.25C92.073,179.845 92.18,180.299 92.395,180.611C92.61,180.924 92.913,181.08 93.303,181.08Z" style="fill:white;fill-rule:nonzero;"/>
                <path d="M101.35,184.62L102.588,174.443L103.255,174.443C103.555,174.443 103.705,174.593 103.705,174.893L103.578,176.513C103.768,176.183 103.975,175.884 104.2,175.616C104.425,175.349 104.661,175.12 104.909,174.93C105.156,174.74 105.415,174.594 105.685,174.491C105.955,174.389 106.23,174.338 106.51,174.338C107.155,174.338 107.658,174.573 108.018,175.043C108.378,175.513 108.558,176.2 108.558,177.105C108.558,177.515 108.515,177.925 108.43,178.335C108.345,178.745 108.224,179.136 108.066,179.509C107.909,179.881 107.719,180.229 107.496,180.551C107.274,180.874 107.026,181.154 106.754,181.391C106.481,181.629 106.185,181.815 105.865,181.95C105.545,182.085 105.21,182.153 104.86,182.153C104.485,182.153 104.143,182.079 103.833,181.931C103.523,181.784 103.263,181.573 103.053,181.298L102.648,184.62L101.35,184.62ZM106.008,175.41C105.768,175.41 105.524,175.485 105.276,175.635C105.029,175.785 104.79,175.995 104.56,176.265C104.33,176.535 104.116,176.855 103.919,177.225C103.721,177.595 103.55,177.998 103.405,178.433L103.165,180.368C103.355,180.643 103.584,180.836 103.851,180.949C104.119,181.061 104.39,181.118 104.665,181.118C104.925,181.118 105.17,181.063 105.4,180.953C105.63,180.843 105.84,180.694 106.03,180.506C106.22,180.319 106.39,180.099 106.54,179.846C106.69,179.594 106.816,179.324 106.919,179.036C107.021,178.749 107.1,178.451 107.155,178.144C107.21,177.836 107.238,177.533 107.238,177.233C107.238,176.638 107.13,176.185 106.915,175.875C106.7,175.565 106.398,175.41 106.008,175.41Z" style="fill:white;fill-rule:nonzero;"/>
                <path d="M109.443,182.048L110.358,174.443L111.025,174.443C111.165,174.443 111.275,174.475 111.355,174.54C111.435,174.605 111.475,174.705 111.475,174.84C111.475,174.86 111.474,174.889 111.471,174.926C111.469,174.964 111.466,175.003 111.464,175.043C111.461,175.083 111.459,175.118 111.456,175.148C111.454,175.178 111.453,175.195 111.453,175.2L111.348,176.58C111.673,175.88 112.036,175.34 112.439,174.96C112.841,174.58 113.265,174.39 113.71,174.39C113.92,174.39 114.13,174.435 114.34,174.525L114.1,175.808C113.865,175.713 113.638,175.665 113.418,175.665C112.933,175.665 112.5,175.901 112.12,176.374C111.74,176.846 111.423,177.563 111.168,178.523L110.748,182.048L109.443,182.048Z" style="fill:white;fill-rule:nonzero;"/>
                <path d="M117.235,181.11C117.6,181.11 117.933,181.01 118.233,180.81C118.533,180.61 118.788,180.344 118.998,180.011C119.208,179.679 119.37,179.295 119.485,178.86C119.6,178.425 119.658,177.97 119.658,177.495C119.658,176.795 119.52,176.268 119.245,175.913C118.97,175.558 118.573,175.38 118.053,175.38C117.683,175.38 117.349,175.479 117.051,175.676C116.754,175.874 116.5,176.139 116.29,176.471C116.08,176.804 115.918,177.188 115.803,177.623C115.688,178.058 115.63,178.513 115.63,178.988C115.63,179.688 115.766,180.216 116.039,180.574C116.311,180.931 116.71,181.11 117.235,181.11ZM117.115,182.153C116.7,182.153 116.32,182.081 115.975,181.939C115.63,181.796 115.333,181.59 115.083,181.32C114.833,181.05 114.638,180.72 114.498,180.33C114.358,179.94 114.288,179.495 114.288,178.995C114.288,178.355 114.388,177.753 114.588,177.188C114.788,176.623 115.061,176.128 115.409,175.703C115.756,175.278 116.166,174.943 116.639,174.698C117.111,174.453 117.623,174.33 118.173,174.33C118.588,174.33 118.968,174.401 119.313,174.544C119.658,174.686 119.955,174.893 120.205,175.163C120.455,175.433 120.65,175.764 120.79,176.156C120.93,176.549 121,176.993 121,177.488C121,178.123 120.9,178.723 120.7,179.288C120.5,179.853 120.226,180.348 119.879,180.773C119.531,181.198 119.12,181.534 118.645,181.781C118.17,182.029 117.66,182.153 117.115,182.153Z" style="fill:white;fill-rule:nonzero;"/>
                <path d="M121.623,184.62L122.86,174.443L123.528,174.443C123.828,174.443 123.978,174.593 123.978,174.893L123.85,176.513C124.04,176.183 124.248,175.884 124.473,175.616C124.698,175.349 124.934,175.12 125.181,174.93C125.429,174.74 125.688,174.594 125.958,174.491C126.228,174.389 126.503,174.338 126.783,174.338C127.428,174.338 127.93,174.573 128.29,175.043C128.65,175.513 128.83,176.2 128.83,177.105C128.83,177.515 128.788,177.925 128.703,178.335C128.618,178.745 128.496,179.136 128.339,179.509C128.181,179.881 127.991,180.229 127.769,180.551C127.546,180.874 127.299,181.154 127.026,181.391C126.754,181.629 126.458,181.815 126.138,181.95C125.818,182.085 125.483,182.153 125.133,182.153C124.758,182.153 124.415,182.079 124.105,181.931C123.795,181.784 123.535,181.573 123.325,181.298L122.92,184.62L121.623,184.62ZM126.28,175.41C126.04,175.41 125.796,175.485 125.549,175.635C125.301,175.785 125.063,175.995 124.833,176.265C124.603,176.535 124.389,176.855 124.191,177.225C123.994,177.595 123.823,177.998 123.678,178.433L123.438,180.368C123.628,180.643 123.856,180.836 124.124,180.949C124.391,181.061 124.663,181.118 124.938,181.118C125.198,181.118 125.443,181.063 125.673,180.953C125.903,180.843 126.113,180.694 126.303,180.506C126.493,180.319 126.663,180.099 126.813,179.846C126.963,179.594 127.089,179.324 127.191,179.036C127.294,178.749 127.373,178.451 127.428,178.144C127.483,177.836 127.51,177.533 127.51,177.233C127.51,176.638 127.403,176.185 127.188,175.875C126.973,175.565 126.67,175.41 126.28,175.41Z" style="fill:white;fill-rule:nonzero;"/>
                <path d="M135.79,176.078C135.79,176.408 135.723,176.711 135.588,176.989C135.453,177.266 135.205,177.516 134.845,177.739C134.485,177.961 133.99,178.155 133.36,178.32C132.73,178.485 131.92,178.618 130.93,178.718C130.925,178.773 130.923,178.826 130.923,178.879C130.923,178.931 130.923,178.985 130.923,179.04C130.923,179.71 131.069,180.221 131.361,180.574C131.654,180.926 132.095,181.103 132.685,181.103C132.925,181.103 133.139,181.078 133.326,181.028C133.514,180.978 133.681,180.916 133.829,180.844C133.976,180.771 134.106,180.691 134.219,180.604C134.331,180.516 134.435,180.436 134.53,180.364C134.625,180.291 134.713,180.23 134.793,180.18C134.873,180.13 134.953,180.105 135.033,180.105C135.123,180.105 135.205,180.148 135.28,180.233L135.61,180.645C135.355,180.91 135.106,181.136 134.864,181.324C134.621,181.511 134.373,181.668 134.118,181.793C133.863,181.918 133.596,182.009 133.319,182.066C133.041,182.124 132.743,182.153 132.423,182.153C131.988,182.153 131.598,182.08 131.253,181.935C130.908,181.79 130.615,181.584 130.375,181.316C130.135,181.049 129.95,180.725 129.82,180.345C129.69,179.965 129.625,179.54 129.625,179.07C129.625,178.68 129.666,178.291 129.749,177.904C129.831,177.516 129.951,177.148 130.109,176.798C130.266,176.448 130.459,176.123 130.686,175.823C130.914,175.523 131.174,175.264 131.466,175.046C131.759,174.829 132.081,174.658 132.434,174.533C132.786,174.408 133.165,174.345 133.57,174.345C133.955,174.345 134.288,174.4 134.568,174.51C134.848,174.62 135.078,174.76 135.258,174.93C135.438,175.1 135.571,175.288 135.659,175.493C135.746,175.698 135.79,175.893 135.79,176.078ZM133.495,175.305C133.18,175.305 132.89,175.37 132.625,175.5C132.36,175.63 132.125,175.809 131.92,176.036C131.715,176.264 131.54,176.531 131.395,176.839C131.25,177.146 131.138,177.478 131.058,177.833C131.828,177.738 132.445,177.629 132.91,177.506C133.375,177.384 133.733,177.251 133.983,177.109C134.233,176.966 134.398,176.813 134.478,176.648C134.558,176.483 134.598,176.31 134.598,176.13C134.598,176.04 134.578,175.946 134.538,175.849C134.498,175.751 134.434,175.663 134.346,175.583C134.259,175.503 134.145,175.436 134.005,175.384C133.865,175.331 133.695,175.305 133.495,175.305Z" style="fill:white;fill-rule:nonzero;"/>
                <path d="M136.63,182.048L137.545,174.443L138.213,174.443C138.353,174.443 138.463,174.475 138.543,174.54C138.623,174.605 138.663,174.705 138.663,174.84C138.663,174.86 138.661,174.889 138.659,174.926C138.656,174.964 138.654,175.003 138.651,175.043C138.649,175.083 138.646,175.118 138.644,175.148C138.641,175.178 138.64,175.195 138.64,175.2L138.535,176.58C138.86,175.88 139.224,175.34 139.626,174.96C140.029,174.58 140.453,174.39 140.898,174.39C141.108,174.39 141.318,174.435 141.528,174.525L141.288,175.808C141.053,175.713 140.825,175.665 140.605,175.665C140.12,175.665 139.688,175.901 139.308,176.374C138.928,176.846 138.61,177.563 138.355,178.523L137.935,182.048L136.63,182.048Z" style="fill:white;fill-rule:nonzero;"/>
                <path d="M142.555,180.615C142.555,180.585 142.556,180.546 142.559,180.499C142.561,180.451 142.566,180.383 142.574,180.293C142.581,180.203 142.593,180.085 142.608,179.94C142.623,179.795 142.645,179.605 142.675,179.37L143.148,175.568L142.3,175.568C142.235,175.568 142.181,175.549 142.139,175.511C142.096,175.474 142.075,175.415 142.075,175.335C142.075,175.32 142.078,175.29 142.083,175.245C142.088,175.2 142.094,175.149 142.101,175.091C142.109,175.034 142.116,174.975 142.124,174.915C142.131,174.855 142.138,174.798 142.143,174.743L143.313,174.585L143.875,172.238C143.895,172.163 143.933,172.101 143.988,172.054C144.043,172.006 144.11,171.983 144.19,171.983L144.895,171.983L144.565,174.6L146.56,174.6L146.448,175.568L144.445,175.568L143.988,179.303C143.963,179.508 143.944,179.673 143.931,179.798C143.919,179.923 143.909,180.023 143.901,180.098C143.894,180.173 143.889,180.225 143.886,180.255C143.884,180.285 143.883,180.308 143.883,180.323C143.883,180.578 143.941,180.766 144.059,180.889C144.176,181.011 144.338,181.073 144.543,181.073C144.673,181.073 144.788,181.054 144.888,181.016C144.988,180.979 145.074,180.938 145.146,180.893C145.219,180.848 145.28,180.806 145.33,180.769C145.38,180.731 145.425,180.713 145.465,180.713C145.505,180.713 145.536,180.723 145.559,180.743C145.581,180.763 145.605,180.795 145.63,180.84L145.908,181.478C145.668,181.693 145.391,181.861 145.079,181.984C144.766,182.106 144.453,182.168 144.138,182.168C143.653,182.168 143.27,182.035 142.99,181.77C142.71,181.505 142.565,181.12 142.555,180.615Z" style="fill:white;fill-rule:nonzero;"/>
                <path d="M149.44,174.45L148.525,182.048L147.213,182.048L148.128,174.45L149.44,174.45ZM149.943,172.065C149.943,172.195 149.916,172.316 149.864,172.429C149.811,172.541 149.741,172.641 149.654,172.729C149.566,172.816 149.468,172.885 149.358,172.935C149.248,172.985 149.133,173.01 149.013,173.01C148.898,173.01 148.785,172.985 148.675,172.935C148.565,172.885 148.469,172.816 148.386,172.729C148.304,172.641 148.238,172.541 148.188,172.429C148.138,172.316 148.113,172.195 148.113,172.065C148.113,171.935 148.138,171.813 148.188,171.698C148.238,171.583 148.305,171.481 148.39,171.394C148.475,171.306 148.573,171.236 148.683,171.184C148.793,171.131 148.905,171.105 149.02,171.105C149.14,171.105 149.255,171.13 149.365,171.18C149.475,171.23 149.574,171.299 149.661,171.386C149.749,171.474 149.818,171.576 149.868,171.694C149.918,171.811 149.943,171.935 149.943,172.065Z" style="fill:white;fill-rule:nonzero;"/>
                <path d="M156.76,176.078C156.76,176.408 156.693,176.711 156.558,176.989C156.423,177.266 156.175,177.516 155.815,177.739C155.455,177.961 154.96,178.155 154.33,178.32C153.7,178.485 152.89,178.618 151.9,178.718C151.895,178.773 151.893,178.826 151.893,178.879C151.893,178.931 151.893,178.985 151.893,179.04C151.893,179.71 152.039,180.221 152.331,180.574C152.624,180.926 153.065,181.103 153.655,181.103C153.895,181.103 154.109,181.078 154.296,181.028C154.484,180.978 154.651,180.916 154.799,180.844C154.946,180.771 155.076,180.691 155.189,180.604C155.301,180.516 155.405,180.436 155.5,180.364C155.595,180.291 155.683,180.23 155.763,180.18C155.843,180.13 155.923,180.105 156.003,180.105C156.093,180.105 156.175,180.148 156.25,180.233L156.58,180.645C156.325,180.91 156.076,181.136 155.834,181.324C155.591,181.511 155.343,181.668 155.088,181.793C154.833,181.918 154.566,182.009 154.289,182.066C154.011,182.124 153.713,182.153 153.393,182.153C152.958,182.153 152.568,182.08 152.223,181.935C151.878,181.79 151.585,181.584 151.345,181.316C151.105,181.049 150.92,180.725 150.79,180.345C150.66,179.965 150.595,179.54 150.595,179.07C150.595,178.68 150.636,178.291 150.719,177.904C150.801,177.516 150.921,177.148 151.079,176.798C151.236,176.448 151.429,176.123 151.656,175.823C151.884,175.523 152.144,175.264 152.436,175.046C152.729,174.829 153.051,174.658 153.404,174.533C153.756,174.408 154.135,174.345 154.54,174.345C154.925,174.345 155.258,174.4 155.538,174.51C155.818,174.62 156.048,174.76 156.228,174.93C156.408,175.1 156.541,175.288 156.629,175.493C156.716,175.698 156.76,175.893 156.76,176.078ZM154.465,175.305C154.15,175.305 153.86,175.37 153.595,175.5C153.33,175.63 153.095,175.809 152.89,176.036C152.685,176.264 152.51,176.531 152.365,176.839C152.22,177.146 152.108,177.478 152.028,177.833C152.798,177.738 153.415,177.629 153.88,177.506C154.345,177.384 154.703,177.251 154.953,177.109C155.203,176.966 155.368,176.813 155.448,176.648C155.528,176.483 155.568,176.31 155.568,176.13C155.568,176.04 155.548,175.946 155.508,175.849C155.468,175.751 155.404,175.663 155.316,175.583C155.229,175.503 155.115,175.436 154.975,175.384C154.835,175.331 154.665,175.305 154.465,175.305Z" style="fill:white;fill-rule:nonzero;"/>
                <path d="M162.49,175.665C162.45,175.725 162.41,175.769 162.37,175.796C162.33,175.824 162.28,175.838 162.22,175.838C162.15,175.838 162.074,175.81 161.991,175.755C161.909,175.7 161.809,175.639 161.691,175.571C161.574,175.504 161.43,175.441 161.26,175.384C161.09,175.326 160.885,175.298 160.645,175.298C160.42,175.298 160.215,175.329 160.03,175.391C159.845,175.454 159.685,175.54 159.55,175.65C159.415,175.76 159.311,175.889 159.239,176.036C159.166,176.184 159.13,176.34 159.13,176.505C159.13,176.74 159.208,176.928 159.363,177.068C159.518,177.208 159.713,177.329 159.948,177.431C160.183,177.534 160.436,177.633 160.709,177.728C160.981,177.823 161.235,177.943 161.47,178.088C161.705,178.233 161.9,178.418 162.055,178.643C162.21,178.868 162.288,179.16 162.288,179.52C162.288,179.87 162.219,180.205 162.081,180.525C161.944,180.845 161.746,181.126 161.489,181.369C161.231,181.611 160.921,181.805 160.559,181.95C160.196,182.095 159.79,182.168 159.34,182.168C158.855,182.168 158.426,182.081 158.054,181.909C157.681,181.736 157.378,181.515 157.143,181.245L157.473,180.735C157.513,180.67 157.56,180.62 157.615,180.585C157.67,180.55 157.74,180.533 157.825,180.533C157.905,180.533 157.985,180.568 158.065,180.638C158.145,180.708 158.245,180.786 158.365,180.874C158.485,180.961 158.636,181.04 158.819,181.11C159.001,181.18 159.233,181.215 159.513,181.215C159.758,181.215 159.979,181.178 160.176,181.103C160.374,181.028 160.541,180.928 160.679,180.803C160.816,180.678 160.921,180.531 160.994,180.364C161.066,180.196 161.103,180.018 161.103,179.828C161.103,179.573 161.025,179.37 160.87,179.22C160.715,179.07 160.52,178.945 160.285,178.845C160.05,178.745 159.798,178.651 159.528,178.564C159.258,178.476 159.005,178.364 158.77,178.226C158.535,178.089 158.34,177.91 158.185,177.69C158.03,177.47 157.953,177.178 157.953,176.813C157.953,176.493 158.016,176.184 158.144,175.886C158.271,175.589 158.455,175.325 158.695,175.095C158.935,174.865 159.226,174.681 159.569,174.544C159.911,174.406 160.298,174.338 160.728,174.338C161.183,174.338 161.584,174.414 161.931,174.566C162.279,174.719 162.578,174.925 162.828,175.185L162.49,175.665Z" style="fill:white;fill-rule:nonzero;"/>
            </g>
        </g>
    </g>
</svg>
